<?xml version="1.0" encoding="iso-8859-1"?>
<!-- Generator: Adobe Illustrator 19.0.0, SVG Export Plug-In . SVG Version: 6.00 Build 0)  -->
<svg version="1.1" id="Capa_1" xmlns="http://www.w3.org/2000/svg" xmlns:xlink="http://www.w3.org/1999/xlink" x="0px" y="0px"
	 viewBox="0 0 480 480" style="enable-background:new 0 0 480 480;" xml:space="preserve">
<path style="fill:#F3F4FD;" d="M232,168V8H8v272h224V168z"/>
<path style="fill:#FFF0DD;" d="M232,280v192h240V168H232V280z"/>
<path style="fill:#FFDAAA;" d="M232,8h240v160H232V8z"/>
<path style="fill:#C4C8F5;" d="M8,280h224v192H8V280z"/>
<g>
	<path style="fill:#231F20;" d="M472,0H8C3.582,0,0,3.582,0,8v464c0,4.418,3.582,8,8,8h464c4.418,0,8-3.582,8-8V8
		C480,3.582,476.418,0,472,0z M464,160H240V16h224V160z M224,16v256H16V16H224z M16,288h208v176H16V288z M240,464V176h224v288H240z"
		/>
	<path style="fill:#231F20;" d="M280,440h16v16h-16V440z"/>
	<path style="fill:#231F20;" d="M248,440h16v16h-16V440z"/>
	<path style="fill:#231F20;" d="M312,440h16v16h-16V440z"/>
	<path style="fill:#231F20;" d="M344,440h16v16h-16V440z"/>
	<path style="fill:#231F20;" d="M376,440h16v16h-16V440z"/>
	<path style="fill:#231F20;" d="M408,440h16v16h-16V440z"/>
	<path style="fill:#231F20;" d="M440,440h16v16h-16V440z"/>
</g>
<g>
</g>
<g>
</g>
<g>
</g>
<g>
</g>
<g>
</g>
<g>
</g>
<g>
</g>
<g>
</g>
<g>
</g>
<g>
</g>
<g>
</g>
<g>
</g>
<g>
</g>
<g>
</g>
<g>
</g>
</svg>
