<svg id="Capa_1" enable-background="new 0 0 512 512" height="512" viewBox="0 0 512 512" width="512" xmlns="http://www.w3.org/2000/svg"><g><g><path clip-rule="evenodd" d="m354.492 56.135-23.809 67.745c12.301 1.531 24.631 4.28 36.848 8.305 12.216 4.025 23.781 9.156 34.58 15.221l23.809-67.745z" fill="#eff6ff" fill-rule="evenodd"/></g><g><path clip-rule="evenodd" d="m334.537 19.91-8.815 26.758c-1.899 5.782 1.247 12.075 7.029 13.974l16.95 5.556 71.4 23.527 16.922 5.584c5.782 1.899 12.075-1.276 13.974-7.058l8.815-26.758c1.899-5.782-1.276-12.075-7.058-13.974l-105.243-34.667c-5.782-1.9-12.074 1.275-13.974 7.058z" fill="#375e7d" fill-rule="evenodd"/></g><g><path clip-rule="evenodd" d="m438.023 95.308c5.782 1.899 12.075-1.276 13.974-7.058l8.815-26.758c1.899-5.782-1.276-12.075-7.058-13.974l-26.077-8.589c5.782 1.899 8.957 8.192 7.058 13.974l-8.815 26.758c-1.899 5.782-8.192 8.957-13.974 7.058h.057l9.099 3.005z" fill="#2b4d66" fill-rule="evenodd"/></g><g><path clip-rule="evenodd" d="m249.703 489.958c101.785 33.504 211.45-21.826 244.953-123.585 29.507-89.543-9.807-185.208-89.002-229.738-10.799-6.066-22.364-11.196-34.58-15.221s-24.546-6.775-36.848-8.305c-42.942-5.357-85.487 3.997-121.484 24.944-39.54 23.016-71.173 60.063-86.592 106.946-33.532 101.759 21.796 211.455 123.553 244.959z" fill="#375e7d" fill-rule="evenodd"/></g><g><path clip-rule="evenodd" d="m357.695 162.089c-79.308-26.134-164.766 17.007-190.9 96.317-26.105 79.31 17.007 164.771 96.314 190.877 79.308 26.134 164.766-16.979 190.9-96.289l.085-.283c25.935-79.225-17.176-164.544-96.399-190.622z" fill="#eff6ff" fill-rule="evenodd"/></g><g><path clip-rule="evenodd" d="m357.695 162.089-39.399 119.617c-4.563 13.832 4.223 26.871 15.901 31.52l119.897 39.485c25.935-79.225-17.176-164.544-96.399-190.622z" fill="#eb5468" fill-rule="evenodd"/></g><g><path clip-rule="evenodd" d="m318.296 281.706c-13.095-4.309-27.211 2.806-31.519 15.902s2.806 27.211 15.901 31.52 27.211-2.806 31.519-15.902c4.309-13.096-2.806-27.212-15.901-31.52z" fill="#ffd772" fill-rule="evenodd"/></g><g><path clip-rule="evenodd" d="m454.094 352.711c22.732-69.446-7.596-143.568-68.764-178.376 10.743 32.058 16.667 67.32 16.667 104.339 0 18.991-1.559 37.529-4.535 55.387z" fill="#e5384f" fill-rule="evenodd"/></g><g><path clip-rule="evenodd" d="m494.655 366.373c29.507-89.543-9.807-185.208-89.002-229.738-7.936-4.479-16.298-8.419-25.028-11.792-3.146-1.219-6.321-2.353-9.552-3.43-3.798-1.247-7.596-2.381-11.423-3.373 10.261 17.234 18.934 36.14 25.68 56.294 61.167 34.808 91.496 108.931 68.764 178.376-.028.085-.057.17-.085.283-16.241 49.264-55.357 84.554-101.672 97.961-12.443 18.651-26.842 35.091-42.828 48.782 81.831.398 158.162-51.417 185.146-133.363z" fill="#2b4d66" fill-rule="evenodd"/></g><g><path clip-rule="evenodd" d="m352.338 450.955c46.315-13.407 85.43-48.697 101.672-97.961l.085-.283-56.632-18.651c-5.272 31.718-14.966 61.339-28.231 87.785-5.131 10.204-10.772 19.926-16.894 29.11z" fill="#d9eeff" fill-rule="evenodd"/></g><g><path clip-rule="evenodd" d="m405.654 136.635 15.448-46.911-9.155-3.005-16.922-5.584-14.399 43.708c8.73 3.374 17.091 7.314 25.028 11.792z" fill="#d9eeff" fill-rule="evenodd"/></g><g><path clip-rule="evenodd" d="m334.197 313.226c4.308-13.095-2.806-27.211-15.901-31.52-6.831-2.239-13.945-1.389-19.813 1.814 12.103 4.875 18.509 18.396 14.371 30.981-2.069 6.236-6.349 11.14-11.706 14.088.51.198 1.02.368 1.531.539 13.094 4.308 27.21-2.807 31.518-15.902z" fill="#fbba58" fill-rule="evenodd"/></g><g><path d="m490.304 214.93c-17.321-34.333-43.461-62.375-75.621-81.736l11.193-33.991 9.808 3.23c1.896.622 3.846.932 5.789.932 2.872 0 5.729-.676 8.373-2.011 4.438-2.241 7.732-6.064 9.274-10.758l8.818-26.765c3.195-9.73-2.117-20.244-11.839-23.437l-35.913-11.82c-3.934-1.295-8.172.844-9.468 4.779-1.295 3.934.845 8.173 4.779 9.468l35.917 11.822c1.837.602 2.878 2.668 2.275 4.502l-8.818 26.765c-.395 1.203-1.288 1.804-1.786 2.054-.498.252-1.516.613-2.718.22l-105.275-34.668c-1.192-.392-1.786-1.277-2.033-1.77-.251-.5-.612-1.519-.214-2.732l8.818-26.765c.395-1.202 1.288-1.804 1.785-2.054.499-.25 1.516-.613 2.716-.221l37.329 12.303c3.933 1.297 8.173-.842 9.47-4.775 1.297-3.934-.842-8.173-4.775-9.47l-37.337-12.306c-4.7-1.541-9.728-1.159-14.163 1.08-4.438 2.241-7.732 6.063-9.273 10.757l-8.818 26.765c-3.197 9.734 2.103 20.249 11.809 23.437l9.815 3.232-11.208 33.973c-15.295-1.435-30.726-1.093-46.186 1.051-4.103.568-6.968 4.355-6.399 8.457.568 4.103 4.362 6.974 8.457 6.399 28.303-3.922 56.508-1.346 83.84 7.659 47.326 15.591 85.747 48.672 108.186 93.15 22.439 44.477 26.21 95.028 10.619 142.342-32.155 97.667-137.793 150.962-235.484 118.807-47.311-15.578-85.723-48.654-108.159-93.138-22.436-44.483-26.207-95.038-10.616-142.353 18.413-55.942 62.869-100.377 118.921-118.863 3.933-1.298 6.07-5.538 4.773-9.472-1.298-3.932-5.534-6.068-9.472-4.773-12.727 4.198-25.035 9.689-36.689 16.319h-60.082c-4.142 0-7.499 3.357-7.499 7.499s3.357 7.499 7.499 7.499h37.404c-6.69 5.092-13.069 10.58-19.055 16.458-20.939 20.565-37.263 45.867-47.539 73.533h-52.44c-4.142 0-7.499 3.357-7.499 7.499s3.357 7.499 7.499 7.499h47.523c-8.469 29.639-10.019 60.266-4.773 89.964h-80.108c-4.142 0-7.499 3.357-7.499 7.499s3.357 7.499 7.499 7.499h83.361c3.6 14.005 8.734 27.725 15.402 40.947 9.203 18.247 20.9 34.711 34.66 49.045h-67.409c-4.142 0-7.499 3.357-7.499 7.499s3.357 7.499 7.499 7.499h83.502c19.26 16.062 41.571 28.508 66.107 36.586 20.852 6.864 42.027 10.124 62.872 10.123 84.661-.006 163.671-53.812 191.548-138.484 16.846-51.117 12.771-105.734-11.473-153.789zm-146.163-107.942 10.326-31.299 57.162 18.824-10.31 31.309c-8.922-4.487-18.238-8.347-27.899-11.53-9.667-3.185-19.437-5.611-29.279-7.304z"/><path d="m7.499 145.552h93.254c4.142 0 7.499-3.357 7.499-7.499s-3.357-7.499-7.499-7.499h-93.254c-4.142 0-7.499 3.357-7.499 7.499s3.357 7.499 7.499 7.499z"/><path d="m37.488 183.049c-4.142 0-7.499 3.357-7.499 7.499s3.357 7.499 7.499 7.499h70.493c4.142 0 7.499-3.357 7.499-7.499s-3.357-7.499-7.499-7.499z"/><path d="m67.747 295.51c0-4.142-3.357-7.499-7.499-7.499h-52.749c-4.142 0-7.499 3.357-7.499 7.499s3.357 7.499 7.499 7.499h52.749c4.142.001 7.499-3.357 7.499-7.499z"/><path d="m97.736 400.501c0-4.142-3.357-7.499-7.499-7.499h-36.734c-4.142 0-7.499 3.357-7.499 7.499s3.356 7.499 7.499 7.499h36.734c4.142 0 7.499-3.357 7.499-7.499z"/><path d="m159.672 256.062c-27.359 83.115 17.991 172.989 101.09 200.343 16.33 5.381 33.111 8.052 49.819 8.052 24.481 0 48.803-5.736 71.296-17.081 37.842-19.088 65.989-51.773 79.255-92.034.021-.064.041-.128.061-.192l.059-.196c27.111-82.982-18.27-172.676-101.195-199.982-15.281-5.094-31.401-7.799-47.503-8.036-16.184-.239-32.383 2.054-47.871 6.75-8.863 2.687-17.488 6.153-25.756 10.325-37.841 19.095-65.988 51.785-79.255 92.051zm289.447 87.114-106.284-35.002c.517-5.941-.614-11.923-3.366-17.38-2.753-5.458-6.892-9.923-11.976-13.036l34.919-106.016c68.285 26.462 105.856 100.748 86.707 171.434zm-130.763-22.168c-4.167 2.1-8.901 2.453-13.334.996-9.144-3.009-14.132-12.901-11.122-22.053 2.414-7.337 9.261-11.999 16.601-11.999 1.803 0 3.637.282 5.44.874.003.001.005.002.008.003s.005.001.008.002c4.426 1.458 8.019 4.553 10.119 8.716s2.454 8.897.999 13.328c-.001.002-.001.003-.002.005s-.001.005-.002.007c-1.457 4.427-4.552 8.021-8.715 10.121zm-8.101-159.084c12.682 0 25.413 1.708 37.909 5.129l-34.919 106.016c-5.942-.517-11.924.614-17.381 3.367-1.852.934-3.586 2.032-5.197 3.267l-50.028-45.603c-3.062-2.79-7.805-2.571-10.595.49s-2.57 7.804.49 10.595l50.684 46.2c-.596 1.251-1.125 2.542-1.565 3.88-2.71 8.236-2.052 17.034 1.852 24.776 3.906 7.743 10.593 13.501 18.828 16.21 2.154.709 4.347 1.162 6.548 1.413l2.548 21.814c.446 3.819 3.686 6.63 7.439 6.63.291 0 .585-.018.88-.052 4.114-.48 7.059-4.205 6.578-8.319l-2.556-21.883c1.131-.422 2.246-.903 3.339-1.454 5.458-2.753 9.923-6.892 13.035-11.978l106.318 35.013c-11.907 30.946-33.789 56.436-62.551 72.891l-8.367-16.592c-1.865-3.699-6.375-5.185-10.072-3.319-3.698 1.864-5.184 6.374-3.319 10.072l8.379 16.616c-30.339 13.461-63.882 15.984-95.893 7.219l5.839-17.722c1.297-3.933-.842-8.173-4.776-9.469-3.938-1.298-8.174.842-9.469 4.776l-5.84 17.724c-31.789-12.316-56.911-34.978-72.762-62.813l16.539-8.341c3.698-1.865 5.184-6.374 3.319-10.072-1.864-3.699-6.375-5.187-10.072-3.319l-16.521 8.332c-12.874-29.286-16.096-62.925-7.06-95.771l17.465 5.762c.78.258 1.572.38 2.35.38 3.149 0 6.08-1.999 7.12-5.152 1.298-3.933-.839-8.174-4.772-9.471l-17.442-5.754c12.004-30.824 33.92-56.201 62.684-72.557l8.216 16.251c1.32 2.611 3.96 4.118 6.699 4.118 1.138 0 2.293-.261 3.378-.809 3.696-1.869 5.178-6.38 3.309-10.076l-8.198-16.217c18.39-8.1 37.94-12.198 57.61-12.198z"/></g></g></svg>