<svg width="210" height="198" viewBox="0 0 210 198" fill="none" xmlns="http://www.w3.org/2000/svg">
<rect width="210" height="198" fill="white"/>
<path d="M102.473 41.9999C63.1864 41.9999 31.2264 74.1075 31.2264 113.573C31.2264 153.037 63.1864 185.143 102.473 185.143C141.758 185.143 173.722 153.037 173.722 113.573C173.722 74.1075 141.758 41.9999 102.473 41.9999Z" fill="#5A61D7"/>
<path d="M109.05 15.498H98.6571V20.3965H109.05V15.498Z" fill="#CED0F7"/>
<path d="M116.64 25.8914H90.7422V39.6938C94.5657 39.0838 98.4816 38.7587 102.474 38.7587C107.318 38.7587 112.05 39.24 116.64 40.1329V25.8914Z" fill="#5A61D7"/>
<path d="M102.473 66.7308C76.7627 66.7308 55.8455 87.7443 55.8455 113.571C55.8455 139.4 76.7627 160.411 102.473 160.411C128.185 160.411 149.103 139.4 149.103 113.571C149.103 87.7443 128.185 66.7308 102.473 66.7308ZM131.285 89.2083L104.383 115.539C103.856 116.059 103.167 116.319 102.474 116.319C101.903 116.319 101.331 116.141 100.845 115.779L79.4609 99.8422C78.2463 98.9366 77.9941 97.2162 78.8935 95.995C79.795 94.7791 81.5108 94.5247 82.7201 95.4261L102.234 109.971L127.468 85.2714C128.548 84.2085 130.28 84.2338 131.336 85.321C132.39 86.4102 132.368 88.1496 131.285 89.2083Z" fill="#CED0F7"/>
<path d="M102.473 188.387C61.4079 188.387 28 154.825 28 113.571C28 72.3195 61.4079 38.7584 102.473 38.7584C143.54 38.7584 176.949 72.3205 176.949 113.571C176.949 128.348 172.667 142.642 164.563 154.904C163.999 155.756 163.012 156.232 161.994 156.114C160.979 156.006 160.109 155.341 159.738 154.386L153.732 138.979C153.181 137.566 153.875 135.97 155.282 135.419C156.682 134.865 158.277 135.558 158.826 136.976L162.821 147.22C168.5 136.965 171.48 125.437 171.48 113.573C171.48 75.3529 140.524 44.2564 102.474 44.2564C64.4255 44.2564 33.472 75.3529 33.472 113.573C33.472 151.797 64.4255 182.893 102.474 182.893C110.08 182.893 117.557 181.655 124.694 179.223C126.122 178.729 127.677 179.502 128.164 180.94C128.65 182.374 127.884 183.934 126.454 184.425C118.749 187.053 110.68 188.387 102.473 188.387Z" fill="#411C00"/>
<path d="M162.285 156.132C161.216 156.132 160.203 155.499 159.764 154.451C159.176 153.052 159.83 151.442 161.223 150.852L177.203 144.089C178.596 143.492 180.199 144.157 180.784 145.553C181.372 146.952 180.718 148.562 179.325 149.152L163.345 155.915C162.999 156.064 162.638 156.132 162.285 156.132Z" fill="#411C00"/>
<path d="M102.473 165.907C73.7451 165.907 50.3756 142.432 50.3756 113.571C50.3756 84.7142 73.7462 61.2351 102.473 61.2351C131.2 61.2351 154.574 84.7142 154.574 113.571C154.574 142.432 131.201 165.907 102.473 165.907ZM102.473 66.731C76.7627 66.731 55.8455 87.7445 55.8455 113.571C55.8455 139.401 76.7627 160.411 102.473 160.411C128.185 160.411 149.103 139.401 149.103 113.571C149.103 87.7445 128.185 66.731 102.473 66.731Z" fill="#411C00"/>
<path d="M102.473 116.319C101.902 116.319 101.33 116.141 100.843 115.779L79.4597 99.8423C78.2451 98.9367 77.9929 97.2162 78.8923 95.9951C79.7938 94.7791 81.5096 94.5248 82.719 95.4262L102.232 109.971L127.467 85.2714C128.547 84.2086 130.279 84.2339 131.335 85.321C132.39 86.4092 132.368 88.1476 131.285 89.2073L104.383 115.538C103.856 116.059 103.166 116.319 102.473 116.319Z" fill="#411C00"/>
<path d="M119.375 45.7205C117.864 45.7205 116.639 44.4898 116.639 42.972V25.8902H90.7414V42.972C90.7414 44.4898 89.5163 45.7205 88.0054 45.7205C86.4945 45.7205 85.2694 44.4898 85.2694 42.972V23.1428C85.2694 21.626 86.4945 20.3943 88.0054 20.3943H119.374C120.884 20.3943 122.11 21.626 122.11 23.1428V42.972C122.111 44.4898 120.886 45.7205 119.375 45.7205Z" fill="#411C00"/>
<path d="M111.787 25.8913C110.276 25.8913 109.051 24.6606 109.051 23.1428V15.4969H98.6571V23.1428C98.6571 24.6606 97.432 25.8913 95.9211 25.8913C94.4102 25.8913 93.1851 24.6606 93.1851 23.1428V12.7485C93.1851 11.2307 94.4102 10 95.9211 10H111.786C113.296 10 114.522 11.2307 114.522 12.7485V23.1428C114.522 24.6606 113.296 25.8913 111.787 25.8913Z" fill="#411C00"/>
</svg>
