<svg width="210" height="200" viewBox="0 0 210 200" fill="none" xmlns="http://www.w3.org/2000/svg">
<rect width="210" height="200" fill="white"/>
<path d="M147.519 98.1537C147.519 99.2695 146.614 100.175 145.498 100.175H131.533C130.419 100.175 129.512 99.2695 129.512 98.1537V72.2458H46.043V151.523H163.956V72.2458H147.519V98.1537Z" fill="#59886B"/>
<path d="M156.109 60.1444H53.893L48.0038 68.2045H161.998L156.109 60.1444Z" fill="#59886B"/>
<path d="M153.155 56.1016L147.264 48.043H62.7362L56.847 56.1016H153.155Z" fill="#59886B"/>
<path d="M143.476 72.2473H133.555V96.1337H143.476V72.2473Z" fill="#C05555"/>
<path d="M165.979 155.567H44.0215C42.9056 155.567 42 154.662 42 153.546V70.2259C42 69.1101 42.9056 68.2045 44.0215 68.2045H165.978C167.094 68.2045 167.999 69.1101 167.999 70.2259V153.546C168.001 154.662 167.095 155.567 165.979 155.567ZM46.0429 151.524H163.956V72.2473H46.0429V151.524Z" fill="#411C00"/>
<path d="M165.98 72.2473C165.358 72.2473 164.743 71.9603 164.347 71.4185L147.264 48.0428H62.7361L45.6534 71.4185C44.9944 72.3214 43.7263 72.5141 42.8288 71.8578C41.9285 71.2002 41.7304 69.9348 42.3894 69.0332L60.0772 44.8288C60.4586 44.3073 61.0637 44 61.7092 44H148.29C148.935 44 149.542 44.3086 149.922 44.8288L167.61 69.0332C168.27 69.9348 168.072 71.1989 167.17 71.8578C166.812 72.1206 166.394 72.2473 165.98 72.2473Z" fill="#411C00"/>
<path d="M157.135 60.1444H52.8661C51.7502 60.1444 50.8446 59.2388 50.8446 58.123C50.8446 57.0072 51.7502 56.1016 52.8661 56.1016H157.135C158.25 56.1016 159.156 57.0072 159.156 58.123C159.156 59.2388 158.25 60.1444 157.135 60.1444Z" fill="#411C00"/>
<path d="M145.498 100.175H131.533C130.419 100.175 129.512 99.2697 129.512 98.1539V70.2245C129.512 69.1087 130.419 68.2031 131.533 68.2031C132.649 68.2031 133.555 69.1087 133.555 70.2245V96.1324H143.476V70.2245C143.476 69.1087 144.382 68.2031 145.498 68.2031C146.613 68.2031 147.519 69.1087 147.519 70.2245V98.1539C147.519 99.271 146.613 100.175 145.498 100.175Z" fill="#411C00"/>
</svg>
