<svg width="223" height="198" viewBox="0 0 223 198" fill="none" xmlns="http://www.w3.org/2000/svg">
<g clip-path="url(#clip0)">
<rect width="223" height="198" fill="white"/>
<path d="M113.931 73.8253L126.067 68.8557L117.525 47.2428L105.103 52.2642L113.931 73.8253Z" fill="#F4A319"/>
<path d="M47.1035 49.9413C47.0975 50.1808 47.5071 50.858 49.1099 51.7067C54.7612 54.698 62.0995 59.6602 67.3249 63.3434L58.2803 42.4565C54.7937 44.083 47.1611 47.781 47.1035 49.9413Z" fill="white"/>
<path d="M96.7033 157.211C99.2119 157.211 101.246 155.178 101.246 152.669C101.246 150.16 99.2119 148.127 96.7033 148.127C94.1947 148.127 92.161 150.16 92.161 152.669C92.161 155.178 94.1947 157.211 96.7033 157.211Z" fill="#F4A319"/>
<path d="M121.637 45.5809L130.997 69.2623C131.445 70.392 130.899 71.671 129.775 72.1294L113.559 78.7713C113.29 78.8822 113.005 78.9369 112.72 78.9369C112.428 78.9369 112.136 78.8792 111.862 78.7654C111.321 78.5377 110.891 78.1044 110.667 77.5603L100.993 53.9276L83.2628 61.0959L107.691 119.313L161.261 95.7739L139.275 38.451L121.637 45.5809Z" fill="#FC5404"/>
<path d="M101.43 139.362C101.142 139.323 100.864 139.237 100.613 139.092C99.3692 138.735 98.0607 138.531 96.7018 138.531C88.9066 138.531 82.5634 144.872 82.5634 152.669C82.5634 160.466 88.9051 166.807 96.7018 166.807C104.499 166.807 110.84 160.466 110.84 152.669C110.84 146.531 106.904 141.312 101.43 139.362ZM96.7033 161.647C91.7514 161.647 87.7252 157.619 87.7252 152.669C87.7252 147.719 91.7529 143.691 96.7033 143.691C101.654 143.691 105.681 147.719 105.681 152.669C105.681 157.619 101.654 161.647 96.7033 161.647Z" fill="#FC5404"/>
<path d="M160.74 114.154C165.757 122.414 171.691 128.877 173.498 127.91C175.756 126.683 175.078 117.378 173.051 108.846L160.74 114.154Z" fill="white"/>
<path d="M106.517 124.468C106.239 124.468 105.959 124.416 105.695 124.311C105.142 124.091 104.701 123.657 104.472 123.109L78.3021 60.7381C78.0729 60.191 78.0714 59.5759 78.2991 59.0273C78.5268 58.4802 78.9645 58.047 79.5145 57.8252L139.704 33.4932C140.259 33.2699 140.874 33.2803 141.421 33.5154C141.965 33.7535 142.394 34.2 142.607 34.756L166.159 96.1596C166.584 97.2642 166.065 98.5076 164.981 98.9837L107.408 124.281C107.125 124.407 106.821 124.468 106.517 124.468ZM83.2628 61.0944L107.691 119.312L161.261 95.7722L139.275 38.4495L83.2628 61.0944Z" fill="#411C00"/>
<path d="M96.7034 171.242C86.4611 171.242 78.1292 162.91 78.1292 152.667C78.1292 142.425 86.4611 134.093 96.7034 134.093C106.946 134.093 115.278 142.425 115.278 152.667C115.278 162.91 106.944 171.242 96.7034 171.242ZM96.7034 138.531C88.9082 138.531 82.565 144.872 82.565 152.669C82.565 160.466 88.9067 166.807 96.7034 166.807C104.5 166.807 110.842 160.466 110.842 152.669C110.842 144.872 104.499 138.531 96.7034 138.531Z" fill="#411C00"/>
<path d="M96.7033 161.647C91.7515 161.647 87.7252 157.619 87.7252 152.669C87.7252 147.719 91.7529 143.691 96.7033 143.691C101.654 143.691 105.681 147.719 105.681 152.669C105.681 157.619 101.654 161.647 96.7033 161.647ZM96.7033 148.125C94.1986 148.125 92.161 150.163 92.161 152.667C92.161 155.172 94.1986 157.21 96.7033 157.21C99.2081 157.21 101.246 155.172 101.246 152.667C101.246 150.163 99.2081 148.125 96.7033 148.125Z" fill="#411C00"/>
<path d="M66.8251 94.0422H44.1463C42.922 94.0422 41.9283 93.0486 41.9283 91.8243C41.9283 90.6 42.922 89.6064 44.1463 89.6064H66.8266C68.0509 89.6064 69.0445 90.6 69.0445 91.8243C69.0445 93.0486 68.0509 94.0422 66.8251 94.0422Z" fill="#411C00"/>
<path d="M66.8251 109.744H29.3173C28.093 109.744 27.0994 108.75 27.0994 107.526C27.0994 106.301 28.093 105.308 29.3173 105.308H66.8251C68.0494 105.308 69.043 106.301 69.043 107.526C69.043 108.75 68.0509 109.744 66.8251 109.744Z" fill="#411C00"/>
<path d="M66.8252 128.934H37.1687C35.9444 128.934 34.9508 127.94 34.9508 126.716C34.9508 125.492 35.9444 124.498 37.1687 124.498H66.8266C68.0509 124.498 69.0446 125.492 69.0446 126.716C69.0446 127.94 68.0509 128.934 66.8252 128.934Z" fill="#411C00"/>
<path d="M101.72 139.403C100.863 139.403 100.045 138.903 99.6827 138.066L70.7685 71.2954C68.1676 69.3776 55.4191 60.0668 47.0324 55.628C44.0752 54.0607 42.607 52.109 42.6676 49.823C42.7933 45.1151 49.3213 41.7158 57.1934 38.0711L58.4665 37.4796C59.0106 37.2223 59.6331 37.2016 60.1935 37.4116C60.7554 37.6245 61.2064 38.0548 61.4459 38.6063L74.5922 68.9636C74.5981 68.9769 74.604 68.9917 74.6099 69.005L102.874 134.272L156.639 111.092C156.668 111.079 156.696 111.065 156.726 111.055L173.678 103.748C174.268 103.494 174.938 103.508 175.516 103.783C176.096 104.061 176.524 104.577 176.694 105.195C178.154 110.508 182.389 128.129 175.615 131.809C169.263 135.272 160.82 123.013 156.627 115.929L102.597 139.223C102.312 139.345 102.013 139.403 101.72 139.403ZM160.74 114.154C165.757 122.414 171.691 128.877 173.498 127.91C175.756 126.683 175.078 117.378 173.051 108.846L160.74 114.154ZM58.2802 42.4581C54.7936 44.0846 47.1596 47.7825 47.1019 49.9428C47.096 50.1823 47.5056 50.8595 49.1084 51.7082C54.7596 54.6995 62.098 59.6617 67.3234 63.3449L58.2802 42.4581Z" fill="#411C00"/>
<path d="M112.72 78.9383C112.428 78.9383 112.136 78.8806 111.862 78.7667C111.321 78.539 110.891 78.1058 110.667 77.5617L100.441 52.5821C99.9769 51.448 100.52 50.1527 101.652 49.6899C102.792 49.2256 104.083 49.7697 104.544 50.9009L113.931 73.8267L126.067 68.8571L116.979 45.8677C116.528 44.7277 117.086 43.4383 118.226 42.9903C119.366 42.5349 120.655 43.0968 121.103 44.2368L130.995 69.2637C131.443 70.3934 130.898 71.6724 129.774 72.1307L113.558 78.7726C113.29 78.8821 113.005 78.9383 112.72 78.9383Z" fill="#411C00"/>
</g>
<defs>
<clipPath id="clip0">
<rect width="223" height="198" fill="white"/>
</clipPath>
</defs>
</svg>
