<?xml version="1.0" encoding="utf-8"?>
<!-- Generator: Adobe Illustrator 16.0.0, SVG Export Plug-In . SVG Version: 6.00 Build 0)  -->
<!DOCTYPE svg PUBLIC "-//W3C//DTD SVG 1.1//EN" "http://www.w3.org/Graphics/SVG/1.1/DTD/svg11.dtd">
<svg version="1.1" xmlns="http://www.w3.org/2000/svg" xmlns:xlink="http://www.w3.org/1999/xlink" x="0px" y="0px" width="500px"
	 height="500px" viewBox="0 0 500 500" enable-background="new 0 0 500 500" xml:space="preserve">
<g id="Background_Complete">
	<polygon fill="#EBEBEB" points="293.516,394.974 293.516,428.159 282.117,428.159 306.688,456.784 329.74,428.746 318.087,428.746 
		318.087,394.974 	"/>
	<polygon fill="#EBEBEB" points="336.993,144.997 336.993,156.68 332.98,156.68 341.63,166.757 349.746,156.886 345.644,156.886 
		345.644,144.997 	"/>
	<polygon fill="#EBEBEB" points="440.701,253.361 440.701,277.346 432.461,277.346 450.222,298.036 466.883,277.771 
		458.461,277.771 458.461,253.361 	"/>
	<polygon fill="#EBEBEB" points="60.842,350.299 60.842,374.285 52.603,374.285 70.363,394.974 87.025,374.709 78.603,374.709 
		78.603,350.299 	"/>
	<polygon fill="#EBEBEB" points="208.341,389.51 208.341,407.412 202.192,407.412 215.447,422.853 227.883,407.728 221.597,407.728 
		221.597,389.51 	"/>
	<g>
		<g>
			<g>
				<path fill="#F5F5F5" d="M168.288,96.702c0.838-6.089-7.755-11.099-14.213-11.619c-3.08-0.248-6.278,0.223-9.196-0.794
					c-6.321-2.203-8.846-10.369-15.014-12.971c-4.611-1.945-9.92-0.213-14.39,2.036c-4.47,2.25-8.888,5.082-13.882,5.401
					c-4.344,0.278-9.062-1.333-12.862,0.789c-2.833,1.581-4.316,4.845-6.927,6.77c-2.554,1.884-5.885,2.283-9.054,2.455
					c-3.169,0.172-6.45,0.205-9.335,1.525c-2.885,1.321-5.272,4.372-4.673,7.489L168.288,96.702z"/>
			</g>
		</g>
	</g>
	<g>
		<g>
			<g>
				<path fill="#F5F5F5" d="M468.518,210.318c0.729-5.297-6.747-9.655-12.364-10.108c-2.68-0.216-5.462,0.194-8-0.691
					c-5.499-1.917-7.695-9.02-13.061-11.283c-4.012-1.692-8.629-0.186-12.519,1.771c-3.889,1.957-7.731,4.42-12.076,4.698
					c-3.779,0.242-7.883-1.16-11.189,0.687c-2.464,1.375-3.754,4.214-6.025,5.89c-2.222,1.639-5.119,1.985-7.876,2.135
					c-2.757,0.15-5.61,0.178-8.12,1.327s-4.587,3.803-4.065,6.515L468.518,210.318z"/>
			</g>
		</g>
	</g>
	<g>
		<g>
			<g>
				<path fill="#E0E0E0" d="M223.719,49.022c0.356-2.591-3.299-4.722-6.046-4.943c-1.31-0.106-2.671,0.095-3.912-0.338
					c-2.689-0.938-3.763-4.412-6.387-5.518c-1.961-0.827-4.22-0.091-6.122,0.866c-1.901,0.957-3.781,2.162-5.905,2.298
					c-1.848,0.118-3.855-0.567-5.472,0.335c-1.205,0.673-1.836,2.061-2.946,2.88c-1.086,0.802-2.504,0.971-3.852,1.044
					c-1.348,0.074-2.744,0.087-3.971,0.649s-2.243,1.86-1.988,3.186L223.719,49.022z"/>
			</g>
		</g>
	</g>
	<g>
		<g>
			<g>
				<path fill="#E0E0E0" d="M463.71,432.687c0.655-4.763-6.066-8.681-11.117-9.088c-2.409-0.194-4.911,0.174-7.193-0.621
					c-4.944-1.724-6.919-8.11-11.743-10.146c-3.606-1.521-7.759-0.167-11.255,1.593c-3.497,1.76-6.952,3.975-10.858,4.225
					c-3.398,0.217-7.088-1.043-10.061,0.617c-2.216,1.236-3.376,3.789-5.418,5.295c-1.997,1.474-4.604,1.785-7.082,1.92
					c-2.479,0.136-5.044,0.16-7.301,1.193c-2.257,1.034-4.124,3.42-3.655,5.857L463.71,432.687z"/>
			</g>
		</g>
	</g>
</g>
<g id="Background_Simple" display="none">
	<path display="inline" fill="#EBEBEB" d="M433.238,358.979c17.326,0.947,24.395,15.469,24.48,30.943s-9.823,29.838-22.906,38.104
		c-13.082,8.266-28.905,11.167-44.375,11.585c-13.257,0.358-27.515-1.377-37.52-10.081c-10.006-8.704-12.93-26.31-2.855-34.934
		c9.584-8.205,26.942-4.401,39.183-7.462c10.176-2.544,13.861-8.525,18.727-15.354c4.173-5.858,10.21-10.219,17.186-11.974
		C427.642,359.18,430.374,358.823,433.238,358.979z"/>
	<path display="inline" fill="#EBEBEB" d="M120.855,381.183c-0.933,17.054-15.226,24.011-30.456,24.095
		c-15.231,0.085-29.368-9.669-37.503-22.545s-10.991-28.45-11.402-43.676c-0.353-13.048,1.355-27.081,9.922-36.93
		c8.567-9.848,25.895-12.726,34.383-2.81c8.076,9.434,4.332,26.518,7.344,38.565c2.504,10.016,8.391,13.644,15.113,18.431
		c5.766,4.107,10.058,10.05,11.785,16.915C120.657,375.676,121.009,378.365,120.855,381.183z"/>
	<circle display="inline" fill="#EBEBEB" cx="389.505" cy="205.95" r="36.244"/>
</g>
<g id="Speech_Bubble">
	<g>
		<g>
			<g>
				<path fill="#FAFAFA" d="M212.583,143.229l-7.713-13.594c3.412-5.539,5.384-12.059,5.384-19.042
					c0-20.081-16.278-36.359-36.359-36.359s-36.359,16.279-36.359,36.359c0,20.081,16.278,36.359,36.359,36.359
					c8.385,0,16.101-2.845,22.252-7.614l-0.013,0.016L212.583,143.229z"/>
				<g>
					<path fill="#263238" d="M212.583,143.229c-0.901-0.205-6.037-1.373-16.479-3.747l-0.195-0.044l0.122-0.161l0.012-0.016
						l0.183,0.182c-4.111,3.222-10.031,6.358-17.46,7.368c-1.848,0.237-3.779,0.389-5.763,0.293c-0.991-0.056-2-0.08-3.019-0.165
						c-1.011-0.152-2.037-0.307-3.076-0.464c-4.122-0.813-8.336-2.376-12.267-4.815c-3.929-2.43-7.567-5.73-10.484-9.785
						c-2.912-4.048-5.12-8.848-6.154-14.064c-1.024-5.209-0.939-10.792,0.429-16.196c1.377-5.385,3.951-10.646,7.803-14.974
						c3.898-4.421,8.717-7.96,14.029-10.015c5.289-2.099,10.929-2.898,16.32-2.507c5.393,0.389,10.552,1.937,14.978,4.429
						c4.44,2.472,8.184,5.773,11.072,9.459c2.898,3.688,4.939,7.756,6.203,11.806c1.255,4.069,1.594,8.104,1.579,11.839
						c-0.214,7.523-2.736,13.7-5.439,18.048l0.002-0.126C209.813,138.255,212.153,142.458,212.583,143.229
						c-0.442-0.765-2.849-4.929-7.822-13.532l-0.037-0.063l0.039-0.064c2.65-4.34,5.113-10.478,5.292-17.928
						c-0.002-3.699-0.352-7.69-1.607-11.709c-1.263-4-3.292-8.014-6.165-11.649c-2.863-3.635-6.567-6.885-10.953-9.317
						c-4.373-2.452-9.464-3.97-14.784-4.347c-5.318-0.379-10.879,0.414-16.091,2.485c-5.235,2.028-9.983,5.52-13.827,9.878
						c-3.799,4.266-6.335,9.452-7.697,14.759c-1.352,5.326-1.44,10.833-0.437,15.971c1.013,5.146,3.185,9.883,6.051,13.883
						c2.872,4.007,6.456,7.273,10.331,9.683c3.877,2.418,8.036,3.976,12.108,4.793c1.027,0.158,2.041,0.315,3.04,0.469
						c1.006,0.087,2.005,0.114,2.985,0.173c1.963,0.104,3.875-0.041,5.705-0.267c7.358-0.968,13.243-4.042,17.35-7.21l0.797-0.616
						l-0.615,0.797l-0.012,0.016l-0.073-0.205C206.568,141.764,211.686,143.011,212.583,143.229z"/>
				</g>
			</g>
		</g>
		<g>
			<path fill="#263238" d="M184.529,130.624h-23.564c-1.136,0-2.057-0.921-2.057-2.057V93.739c0-1.136,0.921-2.057,2.057-2.057
				h23.564c1.136,0,2.057,0.921,2.057,2.057v34.828C186.586,129.703,185.665,130.624,184.529,130.624z"/>
			<rect x="160.195" y="94.023" fill="#FAFAFA" width="24.982" height="29.103"/>
			<circle fill="#455A64" cx="172.747" cy="126.847" r="2.097"/>
			<polygon fill="#FF725E" points="176.25,102.89 185.465,113.768 194.103,102.89 189.624,102.89 189.624,87.916 180.665,87.806 
				180.771,102.912 			"/>
			<g>
				
					<ellipse transform="matrix(0.6903 -0.7235 0.7235 0.6903 -27.0342 159.4212)" fill="#263238" cx="172.706" cy="111.29" rx="5.955" ry="0.261"/>
			</g>
			<g>
				<path fill="#263238" d="M175.006,105.672c0.086,0.115-0.889,1.235-2.177,2.5c-1.289,1.265-2.417,2.208-2.519,2.107
					c-0.102-0.101,0.872-1.22,2.177-2.5C173.792,106.5,174.92,105.557,175.006,105.672z"/>
			</g>
		</g>
	</g>
</g>
<g id="Cloud_3">
	<g>
		<g>
			<g>
				<polygon fill="#FF725E" points="402.394,102.209 402.394,119.121 396.584,119.121 409.107,133.709 420.854,119.42 
					414.917,119.42 414.917,102.209 				"/>
				<polygon opacity="0.3" points="402.394,102.209 402.394,119.121 396.584,119.121 409.107,133.709 420.854,119.42 
					414.917,119.42 414.917,102.209 				"/>
			</g>
			<path fill="#FF725E" d="M443.234,64.48c-3.746-14.515-16.888-25.253-32.573-25.253c-10.636,0-20.104,4.942-26.276,12.641
				c-1.064-0.123-2.142-0.202-3.239-0.202c-15.449,0-27.973,12.523-27.973,27.973c0,15.449,12.523,27.973,27.973,27.973h60.908
				c11.927,0,21.595-9.668,21.595-21.595C463.648,74.488,454.608,65.098,443.234,64.48z"/>
			<g>
				<path fill="#263238" d="M449.672,100.073c-0.055-0.079,1.156-0.835,2.762-2.442c1.603-1.59,3.541-4.137,4.716-7.389
					c1.177-3.253,1.314-6.451,1.099-8.698c-0.206-2.262-0.653-3.618-0.561-3.643c0.03-0.01,0.173,0.317,0.363,0.933
					c0.192,0.615,0.412,1.525,0.563,2.67c0.314,2.277,0.235,5.57-0.975,8.916c-1.208,3.345-3.252,5.927-4.95,7.477
					c-0.85,0.784-1.6,1.344-2.141,1.693C450.008,99.939,449.69,100.1,449.672,100.073z"/>
			</g>
			<g>
				<path fill="#263238" d="M385.155,60.048c-0.018,0.096-1.543-0.293-4.047-0.351c-2.489-0.068-5.997,0.322-9.492,1.852
					c-3.497,1.529-6.165,3.841-7.804,5.715c-1.657,1.879-2.406,3.262-2.489,3.21c-0.028-0.016,0.131-0.375,0.484-0.99
					c0.351-0.616,0.919-1.476,1.725-2.46c1.593-1.967,4.289-4.385,7.875-5.953c3.585-1.569,7.189-1.908,9.715-1.743
					c1.271,0.076,2.287,0.243,2.978,0.403C384.791,59.89,385.163,60.017,385.155,60.048z"/>
			</g>
			<g>
				<path fill="#263238" d="M404.048,46.232c0.007,0.095-1.109,0.166-2.833,0.62c-1.721,0.446-4.03,1.375-6.231,2.966
					c-2.194,1.601-3.793,3.51-4.749,5.008c-0.964,1.499-1.377,2.539-1.466,2.502c-0.033-0.013,0.047-0.281,0.222-0.757
					c0.164-0.48,0.479-1.148,0.931-1.937c0.445-0.794,1.077-1.682,1.862-2.596c0.804-0.898,1.771-1.815,2.895-2.641
					c1.133-0.812,2.303-1.449,3.406-1.935c1.113-0.464,2.152-0.791,3.045-0.968c0.89-0.185,1.622-0.278,2.13-0.286
					C403.767,46.189,404.046,46.197,404.048,46.232z"/>
			</g>
			<g>
				<ellipse fill="#263238" cx="411.875" cy="107.375" rx="18.37" ry="0.26"/>
			</g>
		</g>
		<g>
			<ellipse fill="#263238" cx="432.305" cy="142.712" rx="0.261" ry="15.046"/>
		</g>
		<g>
			<ellipse fill="#263238" cx="438.185" cy="151.532" rx="0.261" ry="19.369"/>
		</g>
	</g>
</g>
<g id="Cloud_2">
	<g>
		<polygon fill="#FF725E" points="243.279,362.709 243.279,411.176 226.629,411.176 262.517,452.984 296.186,412.035 
			279.167,412.035 279.167,362.709 		"/>
		<polygon opacity="0.3" points="243.279,362.709 243.279,411.176 226.629,411.176 262.517,452.984 296.186,412.035 
			279.167,412.035 279.167,362.709 		"/>
		<path fill="#FF725E" d="M360.324,254.581c-10.735-41.6-48.4-72.375-93.354-72.375c-30.48,0-57.616,14.163-75.306,36.228
			c-3.051-0.352-6.139-0.58-9.284-0.58c-44.275,0-80.167,35.892-80.167,80.167s35.892,80.168,80.167,80.168h174.559
			c34.181,0,61.89-27.709,61.89-61.889C418.829,283.261,392.921,256.348,360.324,254.581z"/>
		<g>
			<path fill="#263238" d="M202.145,269.174c-0.018,0-0.042-0.183-0.071-0.529c-0.027-0.406-0.061-0.907-0.101-1.517
				c-0.019-0.337-0.039-0.701-0.061-1.096c-0.034-0.398-0.102-0.83-0.156-1.295c-0.128-0.927-0.206-1.991-0.468-3.141
				c-0.113-0.579-0.231-1.184-0.354-1.813c-0.127-0.629-0.33-1.268-0.5-1.938c-0.316-1.348-0.832-2.734-1.332-4.206
				c-1.112-2.901-2.577-6.001-4.475-9.048c-1.936-3.023-4.106-5.678-6.249-7.93c-1.114-1.083-2.145-2.145-3.227-3.009
				c-0.532-0.441-1.021-0.899-1.535-1.284c-0.515-0.381-1.011-0.747-1.485-1.098c-0.926-0.731-1.853-1.258-2.635-1.772
				c-0.396-0.249-0.756-0.495-1.102-0.697c-0.347-0.189-0.667-0.364-0.963-0.525c-0.533-0.299-0.971-0.544-1.326-0.743
				c-0.301-0.175-0.456-0.275-0.448-0.292s0.177,0.052,0.494,0.197c0.368,0.176,0.822,0.394,1.375,0.659
				c0.304,0.149,0.634,0.312,0.99,0.488c0.355,0.19,0.725,0.426,1.131,0.664c0.802,0.493,1.75,1.004,2.697,1.721
				c0.485,0.345,0.991,0.706,1.517,1.081c0.524,0.38,1.025,0.833,1.568,1.272c1.104,0.859,2.157,1.918,3.291,3.004
				c2.184,2.255,4.39,4.931,6.347,7.987c1.918,3.079,3.386,6.22,4.484,9.16c0.493,1.491,0.998,2.896,1.299,4.263
				c0.163,0.679,0.357,1.325,0.475,1.962c0.112,0.636,0.22,1.248,0.324,1.835c0.241,1.163,0.294,2.238,0.395,3.174
				c0.041,0.47,0.095,0.904,0.114,1.308c0.005,0.396,0.011,0.765,0.015,1.103c0.002,0.613,0.003,1.117,0.004,1.525
				C202.174,268.993,202.163,269.175,202.145,269.174z"/>
		</g>
		<g>
			<path fill="#263238" d="M169.348,253.673c-0.066,0.068-1.118-0.973-3.021-2.39c-1.897-1.419-4.711-3.14-8.093-4.422
				c-3.387-1.271-6.637-1.838-8.999-2.025c-2.365-0.193-3.842-0.105-3.847-0.201c-0.002-0.036,0.365-0.083,1.033-0.138
				c0.667-0.064,1.639-0.08,2.838-0.029c2.395,0.095,5.715,0.613,9.159,1.906c3.438,1.303,6.272,3.106,8.134,4.618
				c0.933,0.753,1.653,1.407,2.111,1.896C169.128,253.371,169.373,253.648,169.348,253.673z"/>
		</g>
		<g>
			<path fill="#263238" d="M206.073,322.105c-0.001,0.036-0.565,0.052-1.585,0.049c-1.02,0-2.494-0.032-4.316-0.097
				c-3.643-0.129-8.673-0.425-14.21-0.967c-5.539-0.546-10.531-1.233-14.13-1.815c-1.799-0.291-3.252-0.547-4.252-0.745
				c-1.001-0.195-1.551-0.32-1.545-0.355s0.567,0.021,1.577,0.156c1.101,0.149,2.539,0.345,4.273,0.58
				c3.608,0.488,8.598,1.117,14.127,1.661c5.527,0.541,10.543,0.896,14.178,1.117c1.747,0.106,3.196,0.194,4.305,0.263
				C205.512,322.016,206.074,322.069,206.073,322.105z"/>
		</g>
		<g>
			<path fill="#263238" d="M357.705,254.085c0,0.019-0.193,0.043-0.562,0.074c-0.425,0.028-0.957,0.064-1.608,0.108
				c-0.699,0.033-1.553,0.086-2.539,0.21c-0.986,0.115-2.115,0.191-3.346,0.415c-0.618,0.098-1.265,0.199-1.937,0.305
				c-0.673,0.109-1.362,0.279-2.082,0.424c-1.444,0.269-2.954,0.699-4.55,1.118c-3.166,0.931-6.589,2.153-10.049,3.749
				c-3.445,1.629-6.581,3.47-9.327,5.3c-1.347,0.955-2.646,1.836-3.778,2.771c-0.573,0.459-1.146,0.879-1.661,1.325
				c-0.513,0.447-1.005,0.877-1.477,1.289c-0.962,0.8-1.745,1.616-2.467,2.299c-0.728,0.677-1.316,1.297-1.79,1.813
				c-0.452,0.471-0.821,0.855-1.116,1.163c-0.26,0.263-0.403,0.395-0.417,0.383s0.104-0.166,0.338-0.451
				c0.276-0.326,0.622-0.733,1.046-1.231c0.452-0.538,1.021-1.182,1.733-1.881c0.705-0.705,1.475-1.545,2.426-2.367
				c0.467-0.422,0.955-0.863,1.463-1.322c0.512-0.457,1.083-0.887,1.653-1.356c1.129-0.956,2.428-1.857,3.776-2.83
				c2.751-1.865,5.904-3.733,9.377-5.375c3.487-1.608,6.943-2.827,10.139-3.739c1.611-0.41,3.136-0.827,4.594-1.079
				c0.727-0.137,1.422-0.298,2.101-0.397c0.678-0.094,1.33-0.186,1.954-0.272c1.241-0.201,2.378-0.253,3.372-0.341
				c0.993-0.097,1.852-0.121,2.555-0.122c0.654-0.005,1.188-0.009,1.615-0.012C357.511,254.057,357.705,254.068,357.705,254.085z"/>
		</g>
		<g>
			<path fill="#263238" d="M352.758,378.735c0,0.144-38.647,0.26-86.311,0.26c-47.68,0-86.319-0.116-86.319-0.26
				s38.64-0.261,86.319-0.261C314.111,378.474,352.758,378.591,352.758,378.735z"/>
		</g>
		<g>
			<ellipse fill="#263238" cx="144.309" cy="397.274" rx="0.26" ry="16.149"/>
		</g>
		<g>
			<ellipse fill="#263238" cx="150.87" cy="420.488" rx="0.26" ry="22.709"/>
		</g>
	</g>
</g>
<g id="Cloud_1">
	<g>
		<g>
			<g>
				<polygon fill="#FF725E" points="62.208,188.093 62.208,198.454 58.648,198.454 66.32,207.391 73.517,198.637 69.879,198.637 
					69.879,188.093 				"/>
				<polygon opacity="0.3" points="62.208,188.093 62.208,198.454 58.648,198.454 66.32,207.391 73.517,198.637 69.879,198.637 
					69.879,188.093 				"/>
			</g>
			<path fill="#FF725E" d="M87.228,164.978c-2.295-8.893-10.347-15.471-19.956-15.471c-6.516,0-12.316,3.027-16.098,7.744
				c-0.652-0.075-1.312-0.124-1.984-0.124c-9.465,0-17.137,7.673-17.137,17.137c0,9.465,7.672,17.137,17.137,17.137h37.315
				c7.307,0,13.23-5.923,13.23-13.229C99.734,171.109,94.196,165.356,87.228,164.978z"/>
			<g>
				<path fill="#263238" d="M91.172,186.784c-0.048-0.072,0.678-0.556,1.642-1.548c0.963-0.981,2.131-2.535,2.844-4.51
					c0.714-1.975,0.81-3.916,0.697-5.287c-0.107-1.379-0.356-2.215-0.273-2.239c0.053-0.021,0.432,0.786,0.639,2.2
					c0.212,1.401,0.175,3.436-0.573,5.504c-0.747,2.067-2.019,3.656-3.078,4.598C92.007,186.455,91.2,186.833,91.172,186.784z"/>
			</g>
			<g>
				<path fill="#263238" d="M51.646,162.263c-0.018,0.085-0.956-0.127-2.482-0.144c-1.518-0.023-3.648,0.226-5.772,1.156
					c-2.125,0.929-3.754,2.325-4.767,3.455c-1.024,1.132-1.504,1.965-1.579,1.92c-0.05-0.024,0.319-0.932,1.299-2.16
					c0.967-1.223,2.624-2.725,4.838-3.693c2.213-0.969,4.44-1.166,5.995-1.046C50.745,161.865,51.663,162.209,51.646,162.263z"/>
			</g>
			<g>
				<path fill="#263238" d="M63.221,153.798c0.006,0.086-0.675,0.155-1.719,0.449c-1.042,0.29-2.438,0.864-3.775,1.83
					c-1.332,0.972-2.31,2.122-2.908,3.024c-0.602,0.901-0.878,1.527-0.958,1.495c-0.054-0.018,0.102-0.701,0.645-1.688
					c0.536-0.984,1.52-2.235,2.916-3.252c1.399-1.012,2.893-1.561,3.995-1.766C62.522,153.679,63.22,153.742,63.221,153.798z"/>
			</g>
			<g>
				<ellipse fill="#263238" cx="68.016" cy="191.257" rx="11.254" ry="0.26"/>
			</g>
		</g>
		<g>
			<ellipse fill="#263238" cx="80.532" cy="212.906" rx="0.26" ry="9.218"/>
		</g>
		<g>
			<ellipse fill="#263238" cx="84.134" cy="218.31" rx="0.26" ry="11.866"/>
		</g>
	</g>
</g>
<g id="Character">
	<g opacity="0.3">
		<path d="M382.462,286.702c-1.962-11.416-17.128-22.994-30.17-20.394c-11.36,2.266-23.594,4.905-34.825,7.741
			c-4.633,1.17-9.439-4.461-13.322-7.249c-2.04-1.465-3.236-3.796-4.51-5.96c-7.228-12.287-19.122-21.511-32.414-26.659
			s-27.91-6.38-42.08-4.827c-10.986,1.205-23.043,4.994-28.153,14.794c-2.058,3.947-2.873,8.693-6.07,11.792
			c-4.255,4.123-11.006,3.794-16.552,5.883c-11.092,4.178-16.716,20.049-15.32,31.818c1.397,11.776,11.875,26.939,33.883,29.359
			c0,0,79.73,0.697,119.103,2.605c13.647,0.661,17.765-1.219,31.423-1.573C367.544,323.406,386.057,307.63,382.462,286.702z"/>
	</g>
	<g>
		<g>
			<g>
				<path fill="#E0E0E0" d="M235.995,344.046c1.338-0.333,2.833-1.716,3.988-2.46c2.839-1.828,5.648-3.703,8.425-5.624
					c-9.98-2.906-18.453-5.193-28.432-8.029c-0.29,3.906-0.016,8.144,1.101,11.897c0.92,3.091,2.682,6.377,5.8,7.197
					c2.835,0.745,5.715-0.817,8.21-2.356c0.232-0.143,0.464-0.286,0.695-0.43"/>
				<g>
					<path fill="#263238" d="M237.714,338.535c-0.153-0.016-0.089-1.312-0.443-2.841c-0.336-1.532-0.95-2.676-0.818-2.756
						c0.106-0.082,0.964,1.007,1.326,2.642C238.153,337.211,237.845,338.563,237.714,338.535z"/>
				</g>
				<g>
					<path fill="#263238" d="M239.864,338.013c-0.148-0.032-0.026-1.032-0.161-2.241c-0.121-1.211-0.448-2.163-0.31-2.226
						c0.12-0.065,0.694,0.861,0.828,2.171C240.364,337.026,239.995,338.052,239.864,338.013z"/>
				</g>
				<g>
					<path fill="#455A64" d="M226.677,329.822c0.089,0.021-0.198,1.038-0.213,2.709c-0.022,1.652,0.298,4.013,1.561,6.207
						c1.273,2.22,2.737,4.042,4.088,5.013c1.337,0.992,2.397,1.194,2.365,1.291c-0.006,0.029-0.272,0.01-0.736-0.119
						c-0.465-0.123-1.116-0.398-1.84-0.871c-1.469-0.936-3.036-2.798-4.327-5.052c-1.329-2.313-1.596-4.784-1.479-6.481
						c0.056-0.856,0.187-1.54,0.316-2.001C226.54,330.056,226.646,329.813,226.677,329.822z"/>
				</g>
				<g>
					<path fill="#455A64" d="M234.478,332.134c0.116-0.049,1.175,2.49,1.626,5.835c0.456,3.345,0.11,6.074-0.014,6.059
						c-0.162-0.007-0.054-2.71-0.502-5.988C235.146,334.761,234.323,332.183,234.478,332.134z"/>
				</g>
				<g>
					<path fill="#FF725E" d="M232.217,342.768c-0.045,0.049-0.672-0.408-1.583-1.273c-0.9-0.865-2.106-2.17-2.977-3.92
						c-0.871-1.755-1.084-3.584-0.904-4.849c0.168-1.277,0.611-1.964,0.655-1.937c0.085,0.031-0.223,0.752-0.289,1.971
						c-0.079,1.209,0.178,2.917,1.004,4.584c0.829,1.669,1.951,2.975,2.774,3.894C231.73,342.157,232.27,342.711,232.217,342.768z"
						/>
				</g>
				<g>
					<path fill="#FF725E" d="M246.201,337.348c0.062,0.13-1.514,1.112-3.519,2.193c-2.005,1.082-3.691,1.858-3.766,1.735
						c-0.074-0.123,1.5-1.105,3.519-2.193C244.453,337.996,246.139,337.218,246.201,337.348z"/>
				</g>
				<g>
					<path fill="#455A64" d="M230.284,342.914c0.1,0.086-1.086,1.32-3.042,1.963c-1.951,0.66-3.64,0.386-3.612,0.257
						c0.005-0.157,1.613-0.126,3.447-0.751C228.919,343.781,230.186,342.791,230.284,342.914z"/>
				</g>
				<g>
					<path fill="#455A64" d="M226.888,337.788c0.015,0.153-1.346,0.34-2.853,1.035c-1.515,0.678-2.55,1.58-2.656,1.468
						c-0.104-0.085,0.827-1.217,2.441-1.942C225.428,337.61,226.893,337.654,226.888,337.788z"/>
				</g>
				<g>
					<path fill="#455A64" d="M226.232,333.237c-0.08,0.136-1.429-0.669-3.294-0.914c-1.861-0.272-3.378,0.135-3.418-0.018
						c-0.063-0.117,1.491-0.786,3.49-0.498C225.012,332.075,226.325,333.142,226.232,333.237z"/>
				</g>
			</g>
			<path fill="#FFBE9D" d="M302.792,318.782c0.059,0.093-37.512,9.151-37.512,9.151l-5.525-12.954l2.537-3.912
				c0,0,15.876-3.586,28.802-10.896L302.792,318.782z"/>
			<path fill="#263238" d="M214.625,281.937c0,0-1.71-2.506-9.008-6.075c-6.048-2.958-21.578-5.446-27.863,6.704
				c-6.285,12.151-1.466,30.796,9.009,34.776c10.475,3.98,27.863,9.428,34.986,11.732c7.123,2.304,30.586,8.17,30.586,8.17
				l9.637-5.656l1.136-17.984c0,0-13.286-13.649-24.599-17.421C227.195,292.413,214.625,281.937,214.625,281.937z"/>
			<path fill="#263238" d="M192.929,273.463c0.101-0.148,10.663,0.146,18.369,3.054c2.902,1.095,5.739,2.26,5.739,2.26l4.262-12.138
				l31.929-10.637h35.354l11.502,22.774v1.15c0,0,13.804,0.23,19.784-2.53c5.981-2.761,24.615-10.813,29.446-12.423
				s26.455-4.708,31.286,8.458c4.831,13.167,1.404,26.893-6.671,31.906c-3.807,2.363-68.094,18.988-68.094,18.988l-15.184-24.155
				c0,0-23.146,11.468-30.896,10.22S192.929,273.463,192.929,273.463z"/>
			<g>
				<path fill="#455A64" d="M258.127,261.873c0.018-0.005,0.071,0.155,0.158,0.464c0.097,0.368,0.214,0.815,0.355,1.355
					c0.287,1.183,0.663,2.905,1.039,5.049c0.779,4.282,1.556,10.248,2.161,16.856c0.592,6.613,0.92,12.615,1.049,16.963
					c0.07,2.174,0.09,3.934,0.088,5.149c-0.009,0.558-0.016,1.021-0.021,1.4c-0.011,0.32-0.024,0.489-0.043,0.489
					c-0.018,0-0.038-0.168-0.062-0.487c-0.021-0.38-0.047-0.841-0.077-1.397c-0.063-1.295-0.149-3.03-0.253-5.139
					c-0.223-4.339-0.608-10.328-1.199-16.931c-0.604-6.599-1.321-12.557-2.006-16.844c-0.329-2.146-0.648-3.873-0.874-5.066
					c-0.104-0.547-0.188-1.001-0.26-1.375C258.129,262.044,258.11,261.876,258.127,261.873z"/>
			</g>
			<g>
				
					<ellipse transform="matrix(0.9939 -0.1104 0.1104 0.9939 -29.4604 32.8328)" fill="#455A64" cx="281.794" cy="282.483" rx="18.043" ry="0.26"/>
			</g>
			<g>
				<path fill="#455A64" d="M294.452,280.543c-0.006,0.035-0.413,0.001-1.143-0.092c-0.729-0.099-1.783-0.227-3.088-0.366
					c-2.608-0.282-6.227-0.534-10.227-0.468c-4.001,0.073-7.609,0.451-10.206,0.824c-1.299,0.185-2.349,0.35-3.073,0.473
					c-0.725,0.118-1.131,0.168-1.139,0.133c-0.007-0.035,0.384-0.151,1.099-0.331c0.714-0.185,1.758-0.405,3.056-0.638
					c2.595-0.469,6.225-0.908,10.255-0.981c4.028-0.067,7.672,0.246,10.28,0.623c1.306,0.187,2.356,0.371,3.076,0.531
					C294.064,280.406,294.458,280.508,294.452,280.543z"/>
			</g>
			<g>
				<path fill="#455A64" d="M299.338,279.163c-0.08,0.151-2.885-1.694-6.851-2.544c-3.958-0.896-7.278-0.399-7.287-0.57
					c-0.01-0.061,0.802-0.265,2.149-0.355c1.345-0.094,3.229-0.025,5.249,0.417c2.019,0.447,3.757,1.177,4.938,1.826
					C298.721,278.585,299.373,279.112,299.338,279.163z"/>
			</g>
			<g>
				<path fill="#455A64" d="M269.895,298.935c0.082,0.106-1.266,1.2-3.237,1.982c-1.967,0.793-3.697,0.931-3.712,0.797
					c-0.025-0.15,1.615-0.512,3.519-1.28C268.373,299.678,269.81,298.808,269.895,298.935z"/>
			</g>
			<g>
				<path fill="#455A64" d="M268.197,303.414c0.047,0.13-1.105,0.647-2.635,0.862c-1.528,0.222-2.779,0.048-2.771-0.091
					c0.006-0.149,1.223-0.21,2.697-0.425C266.963,303.553,268.15,303.271,268.197,303.414z"/>
			</g>
			<g>
				<path fill="#455A64" d="M322.532,278.279c0.009,0.016-0.153,0.125-0.469,0.321c-0.369,0.22-0.83,0.495-1.396,0.833
					c-1.285,0.739-3.039,1.749-5.179,2.98c-4.455,2.505-10.501,5.904-17.183,9.661c-6.713,3.706-12.786,7.06-17.261,9.53
					c-2.172,1.171-3.953,2.131-5.259,2.835c-0.584,0.303-1.062,0.551-1.442,0.748c-0.332,0.166-0.511,0.245-0.52,0.229
					s0.153-0.126,0.47-0.321c0.368-0.221,0.83-0.496,1.396-0.834c1.285-0.74,3.039-1.749,5.179-2.98
					c4.454-2.505,10.501-5.904,17.184-9.662c6.71-3.704,12.782-7.057,17.256-9.527c2.173-1.171,3.953-2.132,5.26-2.836
					c0.584-0.303,1.062-0.55,1.442-0.748C322.343,278.342,322.523,278.263,322.532,278.279z"/>
			</g>
			<g>
				<path fill="#455A64" d="M349.498,273.186c0.003,0.019-0.22,0.074-0.646,0.165c-0.479,0.099-1.098,0.226-1.864,0.384
					c-1.617,0.334-3.947,0.871-6.787,1.673c-5.687,1.576-13.353,4.441-21.402,8.488c-8.057,4.043-15.034,8.301-20.081,11.375
					c-2.48,1.52-4.507,2.761-5.971,3.657c-0.672,0.402-1.214,0.727-1.634,0.979c-0.377,0.219-0.579,0.326-0.589,0.311
					c-0.01-0.015,0.174-0.152,0.532-0.399c0.407-0.272,0.932-0.625,1.582-1.061c1.38-0.911,3.387-2.216,5.885-3.8
					c4.999-3.154,11.959-7.471,20.042-11.527c8.077-4.061,15.805-6.886,21.538-8.378c2.864-0.759,5.214-1.243,6.847-1.517
					c0.814-0.151,1.454-0.226,1.885-0.288C349.266,273.19,349.495,273.168,349.498,273.186z"/>
			</g>
			<g>
				<path fill="#455A64" d="M365.334,268.642c-0.009,0.088-1.167-0.013-3.029,0.04c-1.861,0.05-4.432,0.321-7.168,1.075
					c-2.735,0.763-5.079,1.853-6.7,2.768c-1.625,0.913-2.565,1.595-2.618,1.524c-0.021-0.029,0.193-0.226,0.603-0.558
					c0.405-0.338,1.029-0.781,1.828-1.284c1.594-1.009,3.961-2.176,6.748-2.952c2.789-0.769,5.419-0.985,7.305-0.941
					c0.944,0.021,1.706,0.079,2.228,0.16C365.052,268.548,365.338,268.606,365.334,268.642z"/>
			</g>
			<g>
				<path fill="#455A64" d="M359.767,272.868c-0.022,0.155-2.677-0.195-5.954-0.073c-3.28,0.103-5.904,0.635-5.938,0.481
					c-0.037-0.126,2.578-0.896,5.919-1.002C357.133,272.151,359.796,272.741,359.767,272.868z"/>
			</g>
			<g>
				<path fill="#455A64" d="M348.172,268.786c0.07,0.14-2.232,1.361-4.794,3.272c-2.573,1.898-4.41,3.748-4.522,3.64
					c-0.102-0.084,1.594-2.125,4.212-4.058C345.675,269.696,348.121,268.665,348.172,268.786z"/>
			</g>
			<g>
				<path fill="#455A64" d="M382.004,280.197c0.008,0.005-0.025,0.076-0.1,0.212c-0.092,0.161-0.203,0.357-0.339,0.596
					c-0.302,0.521-0.771,1.278-1.437,2.211c-1.31,1.872-3.474,4.449-6.726,6.968c-3.253,2.506-7.479,5.004-12.399,7.268
					c-4.92,2.272-10.533,4.267-16.412,6.331c-11.755,4.111-22.393,7.833-30.145,10.544c-3.832,1.314-6.948,2.383-9.155,3.14
					c-1.051,0.349-1.885,0.625-2.497,0.828c-0.263,0.081-0.478,0.148-0.654,0.203c-0.148,0.043-0.226,0.061-0.229,0.053
					c-0.003-0.009,0.068-0.043,0.211-0.103c0.173-0.068,0.382-0.151,0.637-0.252c0.605-0.227,1.428-0.533,2.465-0.921
					c2.193-0.794,5.291-1.916,9.1-3.295c7.739-2.749,18.359-6.521,30.094-10.688c5.881-2.064,11.481-4.039,16.387-6.276
					c4.903-2.227,9.124-4.679,12.374-7.123c3.249-2.457,5.434-4.969,6.786-6.796c0.688-0.908,1.183-1.645,1.512-2.146
					c0.153-0.228,0.279-0.414,0.382-0.567C381.948,280.254,381.998,280.192,382.004,280.197z"/>
			</g>
			<g>
				<path fill="#455A64" d="M260.91,332.227c-0.008,0.017-0.259-0.072-0.731-0.256c-0.517-0.208-1.201-0.484-2.058-0.829
					c-1.78-0.736-4.347-1.824-7.499-3.212c-6.308-2.766-14.958-6.734-24.403-11.345c-9.438-4.632-17.874-9.049-23.839-12.5
					c-2.99-1.713-5.364-3.178-6.983-4.223c-0.768-0.514-1.382-0.924-1.845-1.233c-0.418-0.286-0.633-0.443-0.623-0.459
					c0.01-0.015,0.244,0.113,0.68,0.371c0.476,0.289,1.106,0.671,1.895,1.149c1.649,0.99,4.048,2.404,7.057,4.074
					c6.003,3.363,14.457,7.724,23.887,12.353c9.438,4.607,18.058,8.626,24.324,11.477c3.099,1.402,5.624,2.545,7.428,3.361
					c0.841,0.383,1.512,0.688,2.019,0.919C260.678,332.089,260.917,332.21,260.91,332.227z"/>
			</g>
			<g>
				<path fill="#455A64" d="M195.41,279.769c-0.016-0.027,0.292-0.24,0.885-0.564c0.592-0.325,1.482-0.741,2.626-1.141
					c2.272-0.809,5.66-1.443,9.357-0.969c3.654,0.44,6.931,1.375,9.056,2.57c1.066,0.583,1.863,1.168,2.367,1.621
					c0.506,0.45,0.75,0.735,0.729,0.757c-0.066,0.081-1.126-0.997-3.265-2.051c-2.121-1.085-5.331-1.942-8.953-2.381
					c-3.603-0.462-6.914,0.097-9.178,0.802C196.754,279.114,195.453,279.855,195.41,279.769z"/>
			</g>
			<g>
				<path fill="#455A64" d="M263.107,313.604c-0.012,0.013-0.173-0.112-0.467-0.361c-0.336-0.288-0.76-0.65-1.28-1.097
					c-1.108-0.955-2.745-2.299-4.787-3.935c-4.084-3.274-9.845-7.646-16.195-12.499c-1.583-1.218-3.127-2.406-4.62-3.555
					c-1.505-1.113-3.037-2.081-4.516-2.974c-2.963-1.775-5.703-3.288-7.871-4.777c-2.183-1.467-3.806-2.862-4.833-3.914
					c-0.529-0.51-0.891-0.953-1.142-1.247c-0.249-0.296-0.373-0.457-0.359-0.469c0.042-0.037,0.569,0.581,1.642,1.57
					c1.063,0.999,2.703,2.336,4.895,3.752c2.178,1.439,4.923,2.912,7.914,4.673c1.492,0.886,3.042,1.853,4.572,2.975
					c1.523,1.134,3.039,2.343,4.634,3.552c6.348,4.852,12.08,9.275,16.111,12.628c2.016,1.675,3.62,3.064,4.689,4.068
					c0.544,0.492,0.943,0.899,1.217,1.171C262.983,313.44,263.12,313.59,263.107,313.604z"/>
			</g>
			<g>
				<path fill="#455A64" d="M236.744,288.67c0.032-0.071,1.375,0.48,3.559,1.328c2.184,0.849,5.219,1.97,8.623,3.05
					c3.407,1.077,6.534,1.908,8.807,2.472c2.274,0.564,3.689,0.887,3.675,0.964c-0.007,0.035-0.369-0.003-1.02-0.101
					c-0.65-0.096-1.586-0.267-2.737-0.504c-2.302-0.474-5.46-1.252-8.882-2.335c-3.421-1.085-6.451-2.267-8.605-3.205
					c-1.078-0.469-1.941-0.868-2.528-1.164C237.046,288.881,236.729,288.704,236.744,288.67z"/>
			</g>
			<g>
				<path fill="#455A64" d="M247.799,279.807c0.008,0.074-1.367,0.285-3.589,0.619c-2.222,0.334-5.288,0.804-8.661,1.406
					c-3.373,0.604-6.412,1.228-8.612,1.686s-3.563,0.736-3.581,0.664c-0.009-0.035,0.321-0.15,0.925-0.33
					c0.604-0.181,1.483-0.418,2.574-0.693c2.182-0.55,5.219-1.232,8.602-1.839c3.383-0.604,6.467-1.018,8.705-1.259
					c1.119-0.12,2.026-0.203,2.655-0.243C247.446,279.777,247.795,279.771,247.799,279.807z"/>
			</g>
			<g>
				<path fill="#455A64" d="M243.062,273.938c0.005,0.084-1.377,0.198-3.584,0.529c-2.207,0.329-5.236,0.928-8.486,1.933
					c-3.249,1.012-6.085,2.233-8.09,3.212c-2.007,0.977-3.21,1.665-3.253,1.593c-0.019-0.03,0.263-0.234,0.789-0.577
					c0.524-0.348,1.308-0.81,2.297-1.344c1.976-1.069,4.82-2.358,8.103-3.381c3.284-1.016,6.358-1.563,8.593-1.801
					c1.118-0.12,2.025-0.184,2.654-0.193C242.712,273.893,243.059,273.902,243.062,273.938z"/>
			</g>
			<g>
				<g>
					<g>
						<path fill="#E0E0E0" d="M283.243,324.427l-5.981,13.982c2.207,1.984,10.608,3.276,13.573,3.127
							c2.965-0.148,7.236-0.114,10.186-0.451c3.744-0.428,7.529-0.149,11.291,0.082s7.563,0.413,11.28-0.205
							s7.393-2.103,10.039-4.786c2.647-2.684,4.11-6.685,3.178-10.337c-0.808-3.158-3.306-5.722-6.265-7.09
							c-2.958-1.369-6.329-1.644-9.572-1.313c-3.243,0.332-6.396,1.242-9.523,2.159c-3.325,0.975-6.739,1.973-10.193,1.699
							c-0.704-0.056-1.402-0.031-2.098-0.159c-4.518-0.832-9.231-0.877-13.3,1.684C285.018,323.348,284.092,323.805,283.243,324.427
							z"/>
						<g>
							<path fill="#455A64" d="M284.111,326.032c-0.012-0.013,0.167-0.188,0.526-0.504c0.37-0.302,0.929-0.738,1.719-1.192
								c1.558-0.892,4.156-1.914,7.453-1.606c1.622,0.159,3.365,0.489,5.239,0.771c1.869,0.273,3.888,0.521,5.984,0.294
								c2.102-0.212,4.252-0.834,6.479-1.491c2.225-0.653,4.581-1.339,7.077-1.507c2.479-0.2,4.955-0.043,7.226,0.623
								c1.134,0.327,2.214,0.769,3.216,1.304c1.003,0.521,1.934,1.221,2.659,2.029c1.476,1.612,2.431,3.517,2.869,5.405
								c0.216,0.941,0.28,1.918,0.09,2.813c-0.178,0.893-0.525,1.705-0.959,2.406c-0.862,1.416-2.029,2.405-3.112,3.106
								c-1.091,0.706-2.112,1.16-2.947,1.511c-0.839,0.344-1.502,0.577-1.952,0.731c-0.451,0.154-0.691,0.225-0.697,0.208
								c-0.007-0.017,0.221-0.12,0.659-0.306c0.438-0.187,1.088-0.45,1.909-0.82c0.817-0.376,1.814-0.853,2.867-1.566
								c1.046-0.71,2.151-1.686,2.958-3.054c0.818-1.349,1.265-3.121,0.764-4.933c-0.436-1.803-1.377-3.643-2.8-5.175
								c-1.404-1.551-3.482-2.516-5.664-3.17c-2.203-0.64-4.612-0.79-7.043-0.595c-4.882,0.359-9.208,2.583-13.551,2.957
								c-2.166,0.221-4.221-0.052-6.099-0.345c-1.881-0.303-3.617-0.652-5.21-0.832c-3.196-0.347-5.755,0.593-7.317,1.418
								C284.873,325.368,284.146,326.079,284.111,326.032z"/>
						</g>
						<g>
							<path fill="#263238" d="M324.981,340.933c-0.029,0.022-0.22-0.194-0.543-0.608c-0.169-0.202-0.353-0.466-0.545-0.785
								c-0.2-0.315-0.43-0.674-0.635-1.098c-0.459-0.823-0.863-1.872-1.253-3.054c-0.352-1.193-0.644-2.534-0.8-3.963
								c-0.138-1.431-0.125-2.804-0.023-4.044c0.142-1.236,0.324-2.346,0.606-3.245c0.114-0.456,0.267-0.854,0.399-1.203
								c0.123-0.352,0.25-0.646,0.374-0.879c0.233-0.471,0.376-0.722,0.409-0.706c0.087,0.039-0.405,1.086-0.826,2.881
								c-0.232,0.892-0.372,1.982-0.484,3.191c-0.073,1.215-0.071,2.554,0.063,3.951c0.153,1.396,0.424,2.707,0.742,3.881
								c0.356,1.161,0.716,2.201,1.124,3.026C324.365,339.951,325.058,340.877,324.981,340.933z"/>
						</g>
						<g>
							<path fill="#455A64" d="M286.929,322.474c0.127,0.07-0.03,0.59-0.286,1.19c-0.257,0.601-0.523,1.073-0.662,1.03
								c-0.137-0.041-0.086-0.605,0.184-1.234C286.432,322.832,286.805,322.404,286.929,322.474z"/>
						</g>
						<g>
							<path fill="#455A64" d="M291.2,320.806c0.132,0.061,0.025,0.576-0.171,1.177c-0.198,0.601-0.417,1.079-0.56,1.05
								c-0.14-0.028-0.143-0.58,0.064-1.212S291.07,320.747,291.2,320.806z"/>
						</g>
						<g>
							
								<ellipse transform="matrix(0.3114 -0.9503 0.9503 0.3114 -101.9081 503.2484)" fill="#455A64" cx="296.281" cy="321.939" rx="1.298" ry="0.26"/>
						</g>
						<g>
							
								<ellipse transform="matrix(0.2771 -0.9608 0.9608 0.2771 -92.0282 522.8762)" fill="#455A64" cx="301.476" cy="322.598" rx="1.3" ry="0.26"/>
						</g>
						<g>
							
								<ellipse transform="matrix(-0.0057 1 -1 -0.0057 630.428 18.1524)" fill="#455A64" cx="306.189" cy="322.513" rx="1.554" ry="0.261"/>
						</g>
						<g>
							
								<ellipse transform="matrix(0.1374 0.9905 -0.9905 0.1374 586.5085 -30.5974)" fill="#455A64" cx="310.821" cy="321.427" rx="1.429" ry="0.26"/>
						</g>
						<g>
							
								<ellipse transform="matrix(-0.1853 -0.9827 0.9827 -0.1853 59.9363 689.3395)" fill="#455A64" cx="315.716" cy="319.825" rx="1.383" ry="0.261"/>
						</g>
						<g>
							
								<ellipse transform="matrix(0.2074 -0.9783 0.9783 0.2074 -57.9471 566.8594)" fill="#455A64" cx="320.841" cy="319.189" rx="1.822" ry="0.261"/>
						</g>
						<g>
							<path fill="#455A64" d="M326.156,317.546c0.132,0.059-0.221,0.969-0.786,2.032c-0.566,1.063-1.125,1.863-1.247,1.787
								c-0.122-0.075,0.229-0.985,0.787-2.032C325.466,318.288,326.025,317.487,326.156,317.546z"/>
						</g>
						<g>
							
								<ellipse transform="matrix(0.5464 -0.8375 0.8375 0.5464 -119.0113 421.8359)" fill="#455A64" cx="329.938" cy="320.791" rx="2.291" ry="0.26"/>
						</g>
						<g>
							
								<ellipse transform="matrix(0.5709 -0.821 0.821 0.5709 -122.7075 412.4786)" fill="#455A64" cx="333.231" cy="323.624" rx="2.092" ry="0.26"/>
						</g>
						<g>
							<path fill="#455A64" d="M336.693,325.768c0.115,0.082-0.33,0.894-1.091,1.731c-0.759,0.84-1.522,1.363-1.616,1.257
								c-0.098-0.109,0.493-0.79,1.23-1.606C335.956,326.336,336.575,325.682,336.693,325.768z"/>
						</g>
						<g>
							<path fill="#455A64" d="M336.363,331.657c0.112,0.084-0.147,0.57-0.738,0.828c-0.589,0.262-1.122,0.125-1.109-0.015
								c0.004-0.147,0.433-0.25,0.899-0.462C335.886,331.807,336.251,331.56,336.363,331.657z"/>
						</g>
						<g>
							<path fill="#455A64" d="M333.162,336.7c0.048,0.135-0.096,0.302-0.313,0.266c-0.216-0.039-0.294-0.245-0.204-0.355
								c0.09-0.114,0.213-0.169,0.294-0.158C333.019,336.469,333.117,336.562,333.162,336.7z"/>
						</g>
					</g>
					<g>
						<path fill="#263238" d="M298.29,338.695c-0.142-0.083,1.167-1.972,1.635-4.684c0.506-2.707-0.063-4.932,0.098-4.961
							c0.11-0.064,0.941,2.208,0.415,5.053C299.941,336.953,298.371,338.794,298.29,338.695z"/>
					</g>
					<g>
						<path fill="#263238" d="M302.412,338.22c-0.138-0.085,1.097-1.815,1.497-4.322c0.439-2.501-0.163-4.54-0.004-4.575
							c0.109-0.07,0.977,2.013,0.518,4.661C303.993,336.636,302.492,338.324,302.412,338.22z"/>
					</g>
					<g>
						<path fill="#263238" d="M307.599,338.253c-0.138-0.09,1.328-1.909,1.811-4.646c0.528-2.729-0.19-4.952-0.03-4.986
							c0.058-0.02,0.321,0.503,0.519,1.423c0.199,0.915,0.284,2.238,0.024,3.658c-0.265,1.419-0.817,2.623-1.331,3.407
							C308.079,337.898,307.646,338.292,307.599,338.253z"/>
					</g>
					<g>
						<path fill="#263238" d="M313.458,337.905c-0.146-0.074,1.017-2.066,1.348-4.818c0.368-2.747-0.259-4.967-0.099-5.002
							c0.11-0.064,0.996,2.188,0.615,5.068C314.971,336.035,313.549,337.995,313.458,337.905z"/>
					</g>
					<g>
						<path fill="#263238" d="M297.24,333.511c0.006,0.028-0.29,0.134-0.85,0.117c-0.554-0.019-1.37-0.202-2.226-0.729
							c-0.859-0.52-1.699-1.382-2.486-2.403c-0.387-0.506-0.842-1.054-1.079-1.786c-0.114-0.363-0.163-0.766-0.091-1.173
							c0.069-0.407,0.298-0.808,0.625-1.079c0.657-0.548,1.547-0.647,2.277-0.429c0.735,0.218,1.314,0.667,1.785,1.129
							c0.938,0.938,1.531,1.992,1.878,2.917c0.348,0.93,0.459,1.729,0.489,2.276c0.025,0.55-0.021,0.852-0.052,0.851
							c-0.1,0.012-0.037-1.229-0.778-2.989c-0.375-0.868-0.973-1.85-1.871-2.71c-0.446-0.422-0.977-0.81-1.591-0.982
							c-0.596-0.177-1.312-0.076-1.801,0.335c-0.5,0.399-0.575,1.104-0.384,1.703c0.187,0.607,0.594,1.135,0.973,1.646
							c0.754,1.021,1.524,1.859,2.306,2.386C295.953,333.676,297.26,333.423,297.24,333.511z"/>
					</g>
					<g>
						<path fill="#263238" d="M296.959,333.357c0.033,0.014-0.034,0.284-0.193,0.763c-0.165,0.476-0.408,1.169-0.853,1.972
							c-0.44,0.791-1.127,1.724-2.227,2.338c-0.543,0.304-1.195,0.52-1.896,0.519c-0.688-0.006-1.496-0.232-1.949-0.947
							c-0.44-0.746-0.171-1.6,0.216-2.159c0.401-0.575,0.951-0.99,1.505-1.262c1.119-0.547,2.204-0.707,3.079-0.882
							c1.765-0.332,2.863-0.503,2.879-0.433c0.015,0.07-1.057,0.368-2.802,0.792c-0.867,0.219-1.924,0.423-2.935,0.948
							c-0.503,0.26-0.969,0.632-1.305,1.122c-0.321,0.475-0.486,1.132-0.191,1.604c0.288,0.479,0.933,0.702,1.506,0.705
							c0.597,0.009,1.17-0.167,1.664-0.43c1.004-0.53,1.675-1.364,2.139-2.104C296.497,334.387,296.869,333.315,296.959,333.357z"/>
					</g>
					<g>
						<path fill="#263238" d="M296.588,337.616c-0.115-0.099,0.461-0.866,0.63-1.983c0.194-1.113-0.108-2.023,0.032-2.081
							c0.113-0.08,0.698,0.876,0.481,2.165C297.529,337.007,296.669,337.728,296.588,337.616z"/>
					</g>
					<g>
						<path fill="#263238" d="M298.816,330.629c0.135,0.04,0.018,0.8-0.424,1.622c-0.438,0.824-1.005,1.343-1.113,1.254
							c-0.115-0.092,0.242-0.723,0.654-1.499C298.349,331.232,298.676,330.584,298.816,330.629z"/>
					</g>
					<g>
						<path fill="#FF725E" d="M314.834,323.19c0.025,0.057-0.803,0.509-2.229,1.05c-1.422,0.541-3.455,1.135-5.759,1.479
							c-2.306,0.341-4.424,0.365-5.942,0.262c-1.521-0.102-2.445-0.293-2.438-0.355c0.012-0.169,3.757,0.274,8.303-0.421
							C311.321,324.546,314.775,323.032,314.834,323.19z"/>
					</g>
					<g>
						
							<ellipse transform="matrix(0.9977 -0.0682 0.0682 0.9977 -22.4695 21.7291)" fill="#FF725E" cx="306.844" cy="339.78" rx="5.517" ry="0.26"/>
					</g>
					<g>
						<path fill="#FF725E" d="M325.62,339.791c-0.033-0.117,1.56,0.01,3.523-1.303c0.954-0.651,1.962-1.665,2.612-3.047
							c0.659-1.371,0.872-3.112,0.542-4.845c-0.34-1.734-1.166-3.269-2.216-4.383c-1.044-1.129-2.247-1.876-3.306-2.365
							c-2.151-0.958-3.672-0.963-3.652-1.07c0.001-0.028,0.374-0.056,1.042,0.018c0.667,0.072,1.633,0.263,2.757,0.715
							c1.113,0.462,2.391,1.205,3.509,2.375c1.127,1.155,2.02,2.776,2.378,4.613c0.35,1.835,0.109,3.692-0.621,5.15
							c-0.721,1.464-1.816,2.504-2.844,3.147c-1.042,0.64-2.011,0.908-2.68,0.991C325.992,339.873,325.618,339.813,325.62,339.791z"
							/>
					</g>
				</g>
				<path fill="#FFBE9D" d="M262.363,315.208l26.039,11.549c0,0,0.521,5.339-1.599,9.679c-1.905,3.898-7.678,3.116-7.678,3.116
					l-22.872-5.319l5.097-2.992L262.363,315.208z"/>
				<path fill="#E0E0E0" d="M285.597,338.48c-0.998-0.758-2.006-1.526-2.796-2.498c-0.791-0.973-1.355-2.184-1.317-3.437
					c0.035-1.137,0.555-2.199,1.12-3.187c0.628-1.095,1.403-2.214,2.584-2.657c1.439-0.54,3.037,0.076,4.409,0.769l0.276,5.795
					L285.597,338.48z"/>
				<g>
					
						<ellipse transform="matrix(0.9141 0.4054 -0.4054 0.9141 153.778 -84.0826)" fill="#EB996E" cx="275.383" cy="320.982" rx="14.242" ry="0.26"/>
				</g>
			</g>
		</g>
		<g>
			<path fill="#455A64" d="M317.967,221.905c1.038,0.034,1.922-0.77,1.959-1.808c0.293-8.213-5.127-26.837-7.728-34.563
				c-1.591-4.728-6.958-8.17-10.717-10.712c-4.539-3.07-20.597-6.828-25.878-8.292l-1.779,0.002l-24.529-1.833l-13.505,6.475
				c0,0-18.73,7.092-24.16,16.972c-5.429,9.879-9.56,38.872-9.56,38.872s-2.488,8.278,0,12.016
				c1.549,2.327,7.315,4.343,12.508,5.341c-2.809,9.358-0.595,16.305-0.694,17.498c-0.205,2.462-2.092,8.187,2.334,7.834
				c4.426-0.354,39.073-9.496,49.356-9.907c10.284-0.41,19.328,2.979,24.947,6.123c5.188,2.903,5.144,3.118,6.99-2.012
				s-4.057-10.882-4.057-10.882s5.307-19.149,7.77-31.666L317.967,221.905z"/>
			<g>
				<path fill="#263238" d="M235.505,210.794c-0.028,0.022-0.304-0.276-0.777-0.833c-0.542-0.645-1.207-1.435-1.991-2.367
					c-1.7-1.974-4.037-4.735-7.031-7.335c-1.499-1.295-3.01-2.43-4.475-3.32c-1.476-0.865-2.851-1.579-4.073-2.014
					c-2.424-0.926-4.039-1.152-4.018-1.26c0.005-0.035,0.407,0.011,1.133,0.127c0.366,0.048,0.807,0.135,1.31,0.278
					c0.506,0.13,1.086,0.271,1.702,0.509c1.258,0.398,2.677,1.089,4.193,1.948c1.504,0.883,3.051,2.026,4.569,3.338
					c3.036,2.637,5.342,5.456,6.975,7.496c0.807,1.031,1.444,1.877,1.866,2.475C235.313,210.432,235.534,210.772,235.505,210.794z"
					/>
			</g>
			<g>
				<path fill="#263238" d="M231.027,238.438c0,0.036-0.431,0.068-1.21,0.096c-0.78,0.029-1.908,0.044-3.303,0.031
					c-2.788-0.029-6.652-0.177-10.876-0.802c-4.225-0.629-7.964-1.708-10.56-2.749c-1.299-0.517-2.331-0.984-3.02-1.355
					c-0.693-0.361-1.067-0.576-1.051-0.608c0.042-0.085,1.587,0.682,4.2,1.619c2.608,0.945,6.317,1.955,10.508,2.579
					c4.19,0.62,8.03,0.826,10.809,0.949c1.306,0.053,2.408,0.098,3.294,0.134C230.596,238.366,231.027,238.402,231.027,238.438z"/>
			</g>
			<g>
				<path fill="#263238" d="M282.957,247.823c0.03,0.019-0.098,0.281-0.357,0.742c-0.255,0.464-0.672,1.106-1.229,1.872
					c-1.109,1.531-2.868,3.504-5.151,5.291c-2.288,1.781-4.628,3.01-6.383,3.715c-0.878,0.354-1.603,0.604-2.114,0.737
					c-0.51,0.141-0.796,0.202-0.807,0.168c-0.026-0.084,1.077-0.457,2.773-1.243c1.695-0.782,3.962-2.038,6.21-3.788
					c2.242-1.755,4.011-3.649,5.181-5.105C282.252,248.757,282.882,247.777,282.957,247.823z"/>
			</g>
			<g>
				<path fill="#263238" d="M283.403,255.504c0.038,0.052-0.554,0.585-1.63,1.289c-1.073,0.704-2.651,1.548-4.505,2.206
					c-1.855,0.655-3.613,0.992-4.891,1.12c-1.279,0.131-2.075,0.089-2.077,0.025c-0.017-0.166,3.156-0.329,6.794-1.636
					C280.743,257.236,283.312,255.366,283.403,255.504z"/>
			</g>
			<g>
				<path fill="#263238" d="M312.199,185.534c0.035,0.008-0.009,0.309-0.117,0.847c-0.104,0.54-0.302,1.31-0.59,2.249
					c-0.572,1.878-1.584,4.418-3.093,7.019c-1.516,2.597-3.225,4.732-4.574,6.157c-0.675,0.714-1.246,1.268-1.664,1.624
					c-0.414,0.36-0.653,0.547-0.679,0.521c-0.058-0.062,0.802-0.913,2.068-2.39c1.268-1.474,2.903-3.613,4.398-6.174
					c1.487-2.563,2.538-5.042,3.193-6.873C311.8,186.682,312.117,185.514,312.199,185.534z"/>
			</g>
			<g>
				<path fill="#263238" d="M318.497,217.512c0,0.071-0.924,0.147-2.421,0.189c-1.497,0.042-3.567,0.042-5.851-0.045
					c-2.284-0.089-4.348-0.249-5.837-0.406c-1.489-0.157-2.405-0.305-2.399-0.375c0.006-0.073,0.933-0.056,2.426,0.007
					c1.686,0.073,3.654,0.158,5.831,0.252c2.176,0.074,4.146,0.14,5.831,0.197C317.571,217.385,318.496,217.438,318.497,217.512z"/>
			</g>
			<g>
				<path fill="#263238" d="M298.956,188.839c0.036-0.006,0.156,0.465,0.344,1.321c0.2,0.957,0.456,2.175,0.762,3.632
					c0.617,3.07,1.505,7.317,2.035,12.087c0.528,4.774,0.378,9.153-0.06,12.267c-0.225,1.557-0.453,2.809-0.675,3.66
					c-0.207,0.854-0.338,1.321-0.373,1.313c-0.035-0.008,0.029-0.49,0.174-1.353c0.16-0.859,0.332-2.113,0.508-3.663
					c0.342-3.102,0.432-7.428-0.092-12.167c-0.526-4.736-1.354-8.986-1.88-12.074c-0.266-1.544-0.476-2.795-0.599-3.664
					C298.974,189.328,298.92,188.845,298.956,188.839z"/>
			</g>
			<g>
				<path fill="#263238" d="M235.505,214.254c0.036,0.005,0.01,0.416-0.065,1.153c-0.076,0.737-0.205,1.802-0.378,3.116
					c-0.351,2.627-0.881,6.251-1.611,10.232c-0.731,3.982-1.56,7.562-2.356,10.1c-0.39,1.271-0.786,2.276-1.083,2.958
					c-0.328,0.671-0.523,1.032-0.556,1.016c-0.079-0.038,0.622-1.517,1.285-4.078c0.7-2.546,1.468-6.119,2.197-10.091
					c0.729-3.971,1.315-7.582,1.759-10.193c0.214-1.219,0.395-2.251,0.542-3.09C235.376,214.65,235.469,214.249,235.505,214.254z"/>
			</g>
			<g>
				<path fill="#263238" d="M232.138,198.317c0.061-0.027,0.469,0.711,0.998,1.966c0.53,1.254,1.161,3.032,1.672,5.048
					c0.508,2.018,0.797,3.883,0.927,5.237c0.13,1.355,0.123,2.199,0.056,2.204c-0.158,0.015-0.469-3.325-1.488-7.314
					C233.305,201.466,231.992,198.379,232.138,198.317z"/>
			</g>
			<g>
				<path fill="#FFFFFF" d="M260.442,233.785c-0.014-0.008,0.083-0.204,0.279-0.572c0.222-0.404,0.516-0.938,0.884-1.608
					c0.812-1.435,1.951-3.451,3.369-5.958c2.93-5.098,7.001-12.181,11.678-20.317l0.329,0.354c-2.952,1.435-6.143,2.855-9.481,4.178
					c-4.024,1.595-7.985,2.943-11.686,4.035l-0.781,0.23l0.518-0.627c5.648-6.857,10.527-12.778,14.028-17.028
					c1.727-2.066,3.112-3.723,4.101-4.905c0.463-0.54,0.831-0.97,1.111-1.296c0.257-0.292,0.396-0.439,0.407-0.43
					c0.012,0.01-0.105,0.175-0.34,0.484c-0.265,0.34-0.612,0.788-1.049,1.349c-0.96,1.204-2.309,2.892-3.987,4.997
					c-3.466,4.279-8.294,10.241-13.886,17.145l-0.264-0.396c3.683-1.102,7.626-2.452,11.635-4.041
					c3.327-1.319,6.508-2.728,9.453-4.149l0.747-0.36l-0.419,0.714c-4.739,8.1-8.865,15.151-11.835,20.226
					c-1.472,2.475-2.655,4.466-3.498,5.883c-0.398,0.653-0.716,1.172-0.957,1.565C260.577,233.612,260.455,233.792,260.442,233.785z
					"/>
			</g>
			<g opacity="0.3">
				<path d="M278.378,261.153c1.178,0.308,3.445-3.268,4.749-5.453c-4.017,2.222-7.856,4.882-12.341,3.911
					c5.033-1.235,9.088-5.199,10.801-10.091c-3.312,4.862-7.586,8.31-13.14,10.249C268.448,259.768,276.506,260.665,278.378,261.153
					z"/>
			</g>
		</g>
		<g>
			<g>
				<path fill="#263238" d="M232.138,154.945c0.019-0.048,0.686,0.285,1.973,0.569c1.257,0.257,3.284,0.491,5.394-0.53
					c1.03-0.513,2.043-1.359,2.718-2.531c0.688-1.154,0.957-2.68,0.436-4.101c-0.489-1.396-1.707-2.716-3.309-2.958
					c-1.565-0.239-3.342,0.758-3.979,2.319c-0.325,0.776-0.263,1.657,0.093,2.393c0.363,0.734,0.98,1.333,1.692,1.717
					c0.707,0.395,1.508,0.602,2.282,0.588c0.782-0.011,1.547-0.212,2.235-0.525c1.386-0.63,2.49-1.655,3.34-2.724
					c0.854-1.078,1.483-2.209,1.919-3.296c0.89-2.18,1.048-4.122,1.045-5.432c-0.018-1.32-0.164-2.045-0.114-2.053
					c0.018-0.003,0.063,0.175,0.135,0.519c0.069,0.345,0.144,0.859,0.182,1.528c0.065,1.328-0.036,3.317-0.905,5.573
					c-0.426,1.125-1.054,2.302-1.921,3.428c-0.867,1.118-2.002,2.204-3.481,2.894c-0.736,0.341-1.561,0.567-2.425,0.585
					c-0.869,0.019-1.752-0.205-2.538-0.639c-0.789-0.424-1.489-1.087-1.912-1.938c-0.417-0.848-0.492-1.905-0.11-2.812
					c0.753-1.806,2.712-2.899,4.54-2.631c1.844,0.294,3.162,1.775,3.685,3.304c0.561,1.565,0.239,3.257-0.517,4.477
					c-0.743,1.249-1.831,2.123-2.929,2.644c-2.254,1.032-4.335,0.716-5.603,0.396c-0.648-0.172-1.134-0.363-1.454-0.51
					C232.291,155.054,232.131,154.96,232.138,154.945z"/>
			</g>
			<g>
				<g>
					<g>
						<path fill="#263238" d="M310.542,132.934c0.388-4.058-0.931-8.311-3.771-11.235c-2.84-2.924-7.21-4.372-11.179-3.437
							c-2.834,0.667-5.599,1.782-7.606,3.967c-0.826,0.927-0.981,1.103-1.55,2.208c-0.065,0.126-0.13,0.256-0.192,0.387
							c-0.078,0.165-0.152,0.33-0.226,0.497c-0.011,0.028-0.025,0.053-0.036,0.081l0.007-0.011
							c-1.213,2.826-1.576,6.016-0.882,9.011c1.056,4.547,4.572,8.481,9.025,9.883c4.452,1.402,9.675,0.137,12.877-3.259
							C309.065,138.845,310.255,135.918,310.542,132.934z"/>
						<g>
							<path fill="#455A64" d="M308.747,139.605c-0.091,0.018-0.271-1.134-0.972-2.846c-0.688-1.705-2-3.96-4.101-5.833
								c-2.101-1.873-4.493-2.917-6.265-3.404c-1.782-0.5-2.946-0.546-2.939-0.638c0.002-0.033,0.293-0.057,0.82-0.035
								c0.526,0.02,1.288,0.106,2.211,0.316c1.837,0.406,4.342,1.431,6.52,3.373c2.178,1.94,3.483,4.311,4.098,6.089
								c0.314,0.893,0.487,1.639,0.568,2.16C308.769,139.308,308.779,139.601,308.747,139.605z"/>
						</g>
						<g>
							<path fill="#455A64" d="M304.843,131.708c0.055,0.021-0.219,0.95-0.916,2.349c-0.696,1.395-1.875,3.238-3.554,4.949
								c-1.685,1.706-3.51,2.914-4.894,3.631c-1.388,0.72-2.313,1.007-2.334,0.953c-0.098-0.165,3.562-1.585,6.856-4.949
								C303.313,135.295,304.677,131.613,304.843,131.708z"/>
						</g>
						<g>
							<path fill="#FF725E" d="M294.051,127.413c-0.155-0.088,1.045-2.016,2.042-4.562c1.025-2.559,0.896-4.828,1.049-4.833
								c0.062-0.006,0.192,0.557,0.174,1.485c-0.013,0.926-0.233,2.209-0.735,3.53C295.545,125.67,294.14,127.473,294.051,127.413z"
								/>
						</g>
					</g>
					<g>
						<g>
							<g>
								<g>
									<g>
										<g>
											<g>
												<g>
													<g>
														<g>
															<g>
																<g>
																	<g>
																		<path fill="#FFBE9D" d="M276.638,176.324C276.638,176.324,276.628,176.488,276.638,176.324L276.638,176.324z"/>
																		<path fill="#FFBE9D" d="M294.202,123.927c0.474-11.685-8.201-22.209-20.044-23.394
																			c-12.565-1.257-23.487,7.931-24.297,20.162l-2.017,49.362c-0.039,0.956,0.25,1.892,0.804,2.671
																			c2.974,4.177,8.281,7.389,12.977,7.952c4.548,0.545,9.127-0.72,12.942-2.937c1.292-0.751,2.066-2.154,2.065-3.649
																			l-0.005-11.042c0-0.042,0.031-0.076,0.074-0.074c0.684,0.037,2.427,0.031,3.092-0.144
																			c2.907-0.766,10.294-3.766,12.585-14.733C293.138,144.465,293.787,134.17,294.202,123.927z"/>
																	</g>
																	<path fill="#263238" d="M278.291,140.351c-0.004-0.109,1.217-0.253,3.19-0.4c0.5-0.026,0.976-0.099,1.074-0.428
																		c0.133-0.347-0.051-0.885-0.267-1.466c-0.413-1.207-0.846-2.473-1.301-3.799c-1.801-5.405-3.081-9.84-2.859-9.908
																		c0.222-0.068,1.861,4.258,3.662,9.664c0.432,1.332,0.846,2.602,1.238,3.817c0.163,0.565,0.458,1.212,0.171,1.933
																		c-0.15,0.358-0.528,0.605-0.851,0.673c-0.324,0.079-0.604,0.07-0.851,0.072
																		C279.519,140.514,278.293,140.459,278.291,140.351z"/>
																</g>
															</g>
														</g>
													</g>
												</g>
											</g>
										</g>
									</g>
								</g>
							</g>
						</g>
					</g>
					<g>
						<g>
							<g>
								<g>
									<g>
										<g>
											<g>
												<g>
													<g>
														<g>
															<g>
																<path fill="#263238" d="M289.451,131.289c-0.009,0.941-0.827,1.705-1.827,1.707c-0.999,0.001-1.803-0.758-1.794-1.7
																	c0.01-0.941,0.828-1.706,1.826-1.708C288.656,129.586,289.459,130.348,289.451,131.289z"/>
															</g>
														</g>
													</g>
												</g>
											</g>
										</g>
									</g>
								</g>
							</g>
						</g>
						<g>
							<g>
								<g>
									<g>
										<g>
											<g>
												<g>
													<g>
														<g>
															<g>
																<g>
																	<path fill="#263238" d="M291.25,125.855c-0.178,0.196-1.629,0.102-3.476,0.728
																		c-1.849,0.61-3.056,1.592-3.291,1.534c-0.114-0.022,0.039-0.318,0.563-0.755c0.515-0.432,1.44-0.996,2.593-1.381
																		c1.151-0.385,2.186-0.477,2.809-0.425C291.083,125.606,291.339,125.765,291.25,125.855z"/>
																</g>
															</g>
														</g>
													</g>
												</g>
											</g>
										</g>
									</g>
								</g>
							</g>
						</g>
					</g>
					<g>
						<g>
							<g>
								<g>
									<g>
										<g>
											<g>
												<g>
													<g>
														<g>
															<g>
																<path fill="#263238" d="M270.691,130.06c-0.009,0.941-0.827,1.705-1.827,1.707
																	c-0.999,0.002-1.803-0.758-1.793-1.699c0.009-0.942,0.827-1.706,1.826-1.708
																	C269.897,128.357,270.701,129.118,270.691,130.06z"/>
															</g>
														</g>
													</g>
												</g>
											</g>
										</g>
									</g>
								</g>
							</g>
						</g>
						<g>
							<g>
								<g>
									<g>
										<g>
											<g>
												<g>
													<g>
														<g>
															<g>
																<g>
																	<path fill="#263238" d="M271.328,127.456c-0.283,0.013-1.346-1.135-3.245-2.042
																		c-1.891-0.92-3.559-1.087-3.699-1.305c-0.072-0.101,0.265-0.208,0.997-0.143c0.721,0.061,1.859,0.33,3.042,0.898
																		c1.182,0.57,2.055,1.27,2.502,1.772C271.381,127.146,271.463,127.455,271.328,127.456z"/>
																</g>
															</g>
														</g>
													</g>
												</g>
											</g>
										</g>
									</g>
								</g>
							</g>
						</g>
					</g>
					<g>
						<g>
							<g>
								<g>
									<g>
										<g>
											<g>
												<g>
													<g>
														<g>
															<g>
																<path fill="#EB996E" d="M276.627,162.976c0,0-7.55,0.225-16.705-5.813c0,0,2.522,9.926,16.711,9.345
																	L276.627,162.976z"/>
															</g>
														</g>
													</g>
												</g>
											</g>
										</g>
									</g>
								</g>
							</g>
						</g>
					</g>
					<g>
						<g>
							<g>
								<g>
									<g>
										<g>
											<g>
												<g>
													<g>
														<g>
															<g>
																<path fill="#EB996E" d="M277.256,144.924c-0.659-0.946-1.864-1.509-3.089-1.442
																	c-0.849,0.046-1.722,0.404-2.267,1.054c-0.544,0.65-0.695,1.606-0.259,2.275c0.493,0.753,1.584,0.977,2.526,0.765
																	c0.941-0.212,1.769-0.773,2.556-1.334c0.218-0.155,0.44-0.317,0.583-0.538c0.142-0.221,0.183-0.516,0.029-0.713"/>
															</g>
														</g>
													</g>
												</g>
											</g>
										</g>
									</g>
								</g>
							</g>
						</g>
					</g>
					<g>
						<g>
							<g>
								<g>
									<g>
										<g>
											<g>
												<g>
													<g>
														<g>
															<g>
																<g>
																	<path fill="#263238" d="M272.497,141.384c0.318-0.002,0.227,2.077,1.97,3.645c1.739,1.572,4.004,1.453,4.008,1.745
																		c0.023,0.132-0.521,0.378-1.474,0.355c-0.935-0.016-2.284-0.38-3.351-1.338c-1.063-0.961-1.482-2.192-1.516-3.049
																		C272.093,141.867,272.353,141.364,272.497,141.384z"/>
																</g>
															</g>
														</g>
													</g>
												</g>
											</g>
										</g>
									</g>
								</g>
							</g>
						</g>
					</g>
					<g>
						<g>
							<g>
								<g>
									<g>
										<g>
											<g>
												<g>
													<g>
														<path fill="#263238" d="M272.643,119.724c-0.275,0.481-2.153-0.096-4.453-0.22c-2.299-0.17-4.226,0.163-4.447-0.35
															c-0.097-0.244,0.302-0.672,1.121-1.042c0.812-0.37,2.055-0.64,3.434-0.553c1.378,0.089,2.582,0.516,3.348,0.988
															C272.418,119.018,272.766,119.494,272.643,119.724z"/>
													</g>
												</g>
											</g>
										</g>
									</g>
								</g>
							</g>
						</g>
					</g>
					<g>
						<g>
							<g>
								<g>
									<g>
										<g>
											<g>
												<g>
													<g>
														<path fill="#263238" d="M291.213,120.022c-0.363,0.418-1.685-0.102-3.298-0.205c-1.609-0.159-2.993,0.141-3.287-0.33
															c-0.128-0.228,0.107-0.653,0.723-1.034c0.607-0.38,1.606-0.666,2.715-0.577c1.107,0.091,2.05,0.534,2.591,1.008
															C291.207,119.36,291.374,119.818,291.213,120.022z"/>
													</g>
												</g>
											</g>
										</g>
									</g>
								</g>
							</g>
						</g>
					</g>
					<g>
						<path fill="#263238" d="M275.844,98.034c-1.051-1.713-2.96-2.469-5.082-2.75c-8.66-1.146-18.205,4.235-22.907,11.598
							c-4.702,7.362-4.758,18.215-1.065,26.132l3.249,0.506c6.74-0.53,17.738-19.541,27.004-30.102
							C278.194,102.106,276.757,99.522,275.844,98.034z"/>
						<path fill="#263238" d="M292.485,103.39c-3.689-4.041-9.653-8.944-17.1-5.947c-1.065,2.121,1.212,4.804,3.099,6.362
							c2.765,2.281,5.171,3.812,6.987,5.448c3.673,3.307,8.248,8.807,8.718,14.99c0.029,0.388,0.327,0.439,0.716,0.372
							c0.504-0.087,1.619-2.637,2.151-6.01C298.191,111.411,296.174,107.431,292.485,103.39z"/>
						<path fill="#263238" d="M250.567,122.22c-0.383-1.64-1.178-3.191-2.273-4.486l0,0l0,0c-0.721-0.853-1.57-1.598-2.525-2.176
							c-3.487-2.111-8.091-2.08-11.694-0.172c-3.603,1.907-6.167,5.547-7.047,9.528c-0.647,2.926-0.417,6.079,0.869,8.787
							c2.001,4.217,6.581,7.028,11.248,7.066c4.668,0.038,9.225-2.623,11.63-6.624C252.47,131.32,252.026,126.338,250.567,122.22z"
							/>
						<g>
							<g>
								<g>
									<g>
										<g>
											<g>
												<g>
													<g>
														<g>
															<g>
																<g>
																	<g>
																		<g>
																			<g>
																				<g>
																					<g>
																						<g>
																							<path fill="#FFBE9D" d="M252.112,129.542c-0.202-0.106-8.239-3.112-8.589,5.289
																								c-0.35,8.401,8.157,7.02,8.181,6.779S252.112,129.542,252.112,129.542z"/>
																						</g>
																					</g>
																				</g>
																			</g>
																		</g>
																	</g>
																</g>
															</g>
														</g>
													</g>
												</g>
											</g>
										</g>
									</g>
								</g>
							</g>
							<g>
								<g>
									<g>
										<g>
											<g>
												<g>
													<g>
														<g>
															<g>
																<g>
																	<g>
																		<g>
																			<g>
																				<g>
																					<g>
																						<g>
																							<g>
																								<path fill="#EB996E" d="M249.27,138.321c-0.036-0.028-0.151,0.096-0.403,0.199
																									c-0.246,0.1-0.664,0.159-1.095-0.023c-0.874-0.363-1.563-1.803-1.541-3.319
																									c0.011-0.765,0.201-1.487,0.497-2.078c0.282-0.604,0.698-1.017,1.148-1.078
																									c0.449-0.084,0.754,0.196,0.847,0.437c0.103,0.24,0.042,0.405,0.086,0.422
																									c0.022,0.021,0.187-0.134,0.133-0.483c-0.028-0.168-0.118-0.371-0.308-0.54
																									c-0.195-0.173-0.488-0.269-0.801-0.248c-0.649,0.018-1.258,0.589-1.583,1.239
																									c-0.361,0.65-0.593,1.46-0.605,2.32c-0.017,1.695,0.784,3.315,1.984,3.717
																									c0.584,0.179,1.085,0.021,1.348-0.167C249.247,138.523,249.298,138.337,249.27,138.321z"/>
																							</g>
																						</g>
																					</g>
																				</g>
																			</g>
																		</g>
																	</g>
																</g>
															</g>
														</g>
													</g>
												</g>
											</g>
										</g>
									</g>
								</g>
							</g>
						</g>
						<g>
							<path fill="#455A64" d="M294.212,105.073c0.007,0.064-0.924,0.231-2.448,0.322c-1.521,0.092-3.64,0.078-5.956-0.2
								c-2.316-0.282-4.377-0.772-5.834-1.224c-1.458-0.451-2.322-0.834-2.301-0.896c0.025-0.075,0.929,0.184,2.398,0.541
								c1.469,0.357,3.513,0.784,5.799,1.063c2.286,0.274,4.372,0.346,5.884,0.349C293.266,105.03,294.206,104.994,294.212,105.073z
								"/>
						</g>
						<g>
							<path fill="#455A64" d="M297.043,111.097c0.014,0.059-0.671,0.294-1.828,0.433c-1.154,0.141-2.788,0.135-4.533-0.244
								c-1.746-0.384-3.232-1.06-4.223-1.669c-0.995-0.608-1.519-1.108-1.481-1.156c0.086-0.146,2.407,1.596,5.814,2.316
								C294.189,111.544,297.026,110.929,297.043,111.097z"/>
						</g>
						<g>
							<path fill="#455A64" d="M246.788,109.748c0.014-0.106,1.821,0.217,4.754,0.136c1.466-0.007,3.203-0.226,5.114-0.524
								c1.904-0.359,3.975-0.871,6.097-1.579c2.117-0.724,4.072-1.58,5.814-2.432c1.721-0.891,3.249-1.745,4.466-2.567
								c2.458-1.607,3.83-2.816,3.894-2.742c0.023,0.027-0.305,0.344-0.922,0.896c-0.303,0.283-0.691,0.607-1.16,0.962
								c-0.463,0.363-0.988,0.779-1.606,1.188c-1.201,0.869-2.725,1.765-4.453,2.69c-1.749,0.885-3.723,1.764-5.865,2.498
								c-2.148,0.716-4.25,1.221-6.183,1.558c-1.942,0.277-3.705,0.459-5.19,0.419c-0.742,0.02-1.412-0.032-1.999-0.079
								c-0.588-0.032-1.092-0.089-1.5-0.167C247.229,109.874,246.782,109.784,246.788,109.748z"/>
						</g>
						<g>
							<path fill="#455A64" d="M276.367,102.983c0.03,0.019-0.209,0.434-0.67,1.168c-0.227,0.37-0.513,0.817-0.886,1.308
								c-0.371,0.491-0.763,1.078-1.276,1.661c-0.978,1.207-2.246,2.562-3.776,3.935c-1.547,1.354-3.353,2.729-5.393,3.949
								c-2.052,1.202-4.126,2.127-6.061,2.823c-1.946,0.669-3.749,1.117-5.283,1.366c-0.761,0.16-1.465,0.205-2.076,0.281
								c-0.611,0.081-1.142,0.102-1.576,0.111c-0.867,0.028-1.345,0.026-1.346-0.01c-0.007-0.107,1.914-0.149,4.931-0.744
								c1.509-0.292,3.278-0.771,5.188-1.456c1.899-0.711,3.936-1.636,5.957-2.82c2.01-1.202,3.798-2.545,5.341-3.861
								c1.528-1.336,2.81-2.648,3.813-3.813C275.265,104.555,276.28,102.925,276.367,102.983z"/>
						</g>
						<g>
							<path fill="#455A64" d="M270.762,95.285c-0.003-0.055,0.656-0.145,1.686,0.115c1.017,0.264,2.371,0.956,3.452,2.175
								c0.265,0.308,0.508,0.624,0.701,0.963c0.204,0.343,0.313,0.725,0.414,1.029c0.214,0.642,0.396,1.243,0.475,1.767
								c0.17,1.058-0.07,1.707-0.124,1.687c-0.086-0.011,0.013-0.646-0.237-1.614c-0.119-0.484-0.326-1.045-0.566-1.681
								c-0.124-0.334-0.221-0.64-0.402-0.931c-0.177-0.3-0.405-0.59-0.65-0.875c-1.008-1.136-2.238-1.831-3.172-2.169
								C271.395,95.417,270.757,95.372,270.762,95.285z"/>
						</g>
						<g>
							<path fill="#FF725E" d="M248.59,128.812c-0.085-0.027,0.17-0.868,0.346-2.254c0.178-1.381,0.219-3.335-0.311-5.389
								c-0.537-2.054-1.592-3.701-2.54-4.712c-0.949-1.017-1.695-1.49-1.64-1.572c0.02-0.03,0.217,0.067,0.561,0.273
								c0.352,0.194,0.815,0.551,1.342,1.041c1.052,0.979,2.222,2.69,2.781,4.837c0.553,2.145,0.447,4.177,0.171,5.578
								C249.024,128.024,248.641,128.831,248.59,128.812z"/>
						</g>
						<g>
							<path fill="#455A64" d="M249.217,126.96c-0.049,0.074-1.081-0.592-2.848-1.465c-1.763-0.875-4.298-1.896-7.228-2.554
								c-2.932-0.649-5.661-0.803-7.629-0.76c-1.97,0.039-3.187,0.204-3.2,0.116c-0.005-0.036,0.293-0.108,0.841-0.21
								c0.547-0.109,1.349-0.207,2.344-0.273c1.988-0.138,4.773-0.042,7.757,0.62c2.981,0.669,5.543,1.766,7.284,2.736
								c0.872,0.483,1.557,0.912,2.005,1.243C248.997,126.737,249.237,126.93,249.217,126.96z"/>
						</g>
						<g>
							<path fill="#455A64" d="M241.569,123.625c0.058,0.014-0.107,0.977-0.628,2.464c-0.518,1.485-1.442,3.478-2.815,5.459
								c-1.379,1.979-2.924,3.541-4.135,4.543c-1.211,1.007-2.056,1.498-2.09,1.448c-0.116-0.132,3.106-2.373,5.797-6.289
								C240.429,127.365,241.405,123.563,241.569,123.625z"/>
						</g>
						<g>
							<path fill="#455A64" d="M247.102,139.938c0.061-0.162,0.363-0.253,0.862-0.124c0.491,0.129,1.188,0.5,1.76,1.311
								c0.578,0.791,0.904,2.154,0.423,3.481c-0.231,0.661-0.672,1.333-1.341,1.824c-0.661,0.484-1.472,0.749-2.301,0.769
								c-0.824,0.027-1.668-0.215-2.324-0.648c-0.658-0.427-1.141-1-1.459-1.605c-0.318-0.623-0.479-1.217-0.479-1.901
								c0.015-0.633,0.171-1.128,0.363-1.566c0.389-0.866,1.007-1.441,1.54-1.63c0.534-0.196,0.853-0.062,0.893,0.098
								c0.061,0.36-0.57,0.843-0.672,2.074c-0.029,0.292-0.032,0.633,0.033,0.901c0.053,0.213,0.199,0.56,0.391,0.809
								c0.406,0.543,0.979,0.894,1.651,0.867c0.704-0.031,1.189-0.341,1.485-0.896c0.295-0.565,0.33-1.177,0.169-1.715
								C247.768,140.87,246.954,140.277,247.102,139.938z"/>
						</g>
						<g>
							<path fill="#263238" d="M255.613,126.648c-0.012-0.124,2.019,0.066,5.059-0.889c3.021-0.913,6.946-3.223,9.986-7.008
								c3.038-3.794,4.654-7.98,5.606-11.005c0.477-1.522,0.803-2.774,1.022-3.641c0.22-0.867,0.345-1.347,0.382-1.34
								c0.033,0.006-0.024,0.5-0.185,1.383c-0.158,0.883-0.432,2.155-0.867,3.703c-0.868,3.074-2.45,7.349-5.553,11.226
								c-3.11,3.875-7.173,6.194-10.286,7.034c-1.559,0.438-2.868,0.591-3.77,0.604c-0.449,0.03-0.801-0.013-1.036-0.019
								C255.735,126.683,255.612,126.667,255.613,126.648z"/>
						</g>
					</g>
				</g>
				<g>
					<path fill="#263238" d="M276.353,170.386c0.006-0.012,0.188,0.062,0.503,0.258c0.314,0.198,0.75,0.548,1.191,1.107
						c0.441,0.556,0.861,1.344,1.103,2.33c0.247,0.979,0.275,2.183-0.091,3.415c-0.693,2.482-2.987,4.916-6.129,6.123
						c-1.559,0.626-3.286,1.007-5.08,1.239c-1.795,0.23-3.676,0.333-5.598,0.226c-3.841-0.207-7.479-1.336-10.252-3.233
						c-2.795-1.862-4.686-4.383-5.617-6.735c-0.471-1.176-0.708-2.328-0.676-3.346c0.021-1.019,0.32-1.875,0.681-2.487
						c0.36-0.619,0.779-1.001,1.08-1.219c0.305-0.216,0.491-0.285,0.496-0.273c0.049,0.048-0.74,0.37-1.398,1.591
						c-0.32,0.602-0.574,1.421-0.567,2.392c-0.003,0.97,0.247,2.07,0.726,3.202c0.948,2.266,2.81,4.685,5.543,6.476
						c2.709,1.821,6.248,2.908,10.016,3.112c1.884,0.105,3.733,0.009,5.503-0.211c1.768-0.222,3.454-0.585,4.968-1.18
						c3.044-1.143,5.249-3.441,5.953-5.784c0.745-2.36-0.042-4.438-0.821-5.516C277.071,170.753,276.309,170.44,276.353,170.386z"/>
				</g>
				<g>
					<path fill="#263238" d="M254.349,183.352c-0.136,0-0.163-1.16,0.488-2.391c0.643-1.237,1.611-1.875,1.688-1.763
						c0.101,0.115-0.643,0.871-1.227,2.005C254.7,182.328,254.5,183.37,254.349,183.352z"/>
				</g>
				<g>
					
						<ellipse transform="matrix(-0.039 0.9992 -0.9992 -0.039 457.0196 -73.4265)" fill="#263238" cx="263.816" cy="183.041" rx="2.088" ry="0.26"/>
				</g>
				<g>
					
						<ellipse transform="matrix(0.2011 0.9796 -0.9796 0.2011 395.547 -122.1748)" fill="#263238" cx="272.676" cy="181.414" rx="2.37" ry="0.26"/>
				</g>
				<g>
					<path fill="#263238" d="M278.655,177.74c-0.132,0.07-0.525-0.454-1.173-0.874c-0.639-0.435-1.273-0.594-1.26-0.743
						c-0.005-0.139,0.78-0.205,1.548,0.309C278.542,176.941,278.785,177.69,278.655,177.74z"/>
				</g>
				<g>
					<path fill="#263238" d="M249.377,174.005c0.022,0.147-0.53,0.339-1.062,0.772c-0.542,0.421-0.854,0.915-0.993,0.86
						c-0.135-0.036,0.006-0.745,0.669-1.268C248.65,173.843,249.373,173.866,249.377,174.005z"/>
				</g>
			</g>
		</g>
		<g>
			<g>
				<g>
					<path fill="#263238" d="M265.826,240.917c-1.479-0.048-2.455-1.577-1.855-2.93c2.697-6.078,10.065-17.78,10.553-18.532
						c0.692-1.067,1.065-2.372,3.303-2.641c0.864-0.104,14.367-0.413,17.532-0.484c0.518-0.012,1.032,0.158,1.406,0.517
						c0.63,0.604,1.282,1.743,0.288,3.529c-1.123,2.017-9.28,14.671-12.596,19.555c-0.656,0.967-1.763,1.527-2.931,1.49
						L265.826,240.917z"/>
					<path fill="#FFFFFF" d="M286.656,220.697c-0.2-0.371-0.853-0.411-1.078-0.295c-0.381,0.101-0.658,0.341-0.948,0.608
						c-0.29,0.267-0.429,0.743-0.197,1.062c0.197,0.271,0.577,0.333,0.911,0.304c0.42-0.037,0.844-0.194,1.125-0.508
						C286.75,221.555,286.856,221.067,286.656,220.697z"/>
					<g>
						<path fill="#455A64" d="M293.601,223.45c-0.031-0.017,0.157-0.432,0.525-1.167c0.202-0.395,0.429-0.838,0.682-1.333
							c0.137-0.263,0.281-0.54,0.433-0.829c0.151-0.308,0.35-0.583,0.34-0.89c0.009-0.309-0.141-0.64-0.411-0.84
							c-0.279-0.222-0.604-0.217-1.062-0.184c-0.87,0.036-1.791,0.073-2.756,0.113c-1.952,0.069-4.08,0.145-6.313,0.224
							c-2.234,0.064-4.363,0.126-6.317,0.183c-0.236,0.007-0.471,0.013-0.702,0.02c-0.19,0.018-0.373,0.091-0.52,0.207
							c-0.266,0.212-0.48,0.693-0.721,1.028c-0.461,0.72-0.894,1.396-1.295,2.024c-0.76,1.16-1.398,2.136-1.906,2.911
							c-0.46,0.681-0.729,1.049-0.759,1.03c-0.031-0.019,0.18-0.423,0.587-1.137c0.47-0.799,1.062-1.803,1.765-2.999
							c0.386-0.639,0.8-1.326,1.241-2.058c0.112-0.185,0.227-0.373,0.342-0.563c0.106-0.175,0.237-0.425,0.46-0.595
							c0.211-0.173,0.478-0.286,0.758-0.317c0.242-0.011,0.487-0.021,0.734-0.032c1.954-0.069,4.082-0.145,6.316-0.224
							c2.233-0.065,4.361-0.126,6.315-0.183c0.965-0.022,1.886-0.044,2.757-0.064c0.39-0.028,0.965-0.026,1.322,0.298
							c0.369,0.291,0.557,0.747,0.531,1.17c-0.012,0.211-0.065,0.416-0.163,0.589c-0.087,0.153-0.171,0.302-0.254,0.448
							c-0.163,0.282-0.319,0.552-0.468,0.809c-0.282,0.479-0.534,0.908-0.759,1.291C293.881,223.085,293.632,223.467,293.601,223.45
							z"/>
					</g>
				</g>
				<g>
					<path fill="#FFBE9D" d="M316.204,221.928c0,0-1.37,9.525-2.774,15.643c-1.252,5.451-3.234,23.866-8.301,26.188
						c-5.065,2.321-11.366,0.872-13.701-3.614c-2.336-4.487-4.829-16.447-4.829-16.447l-10.595-4.46c0,0-2.439-8.884-1.053-9.885
						s15.065,0.5,15.065,0.5l3.67-0.834c0,0-5.835-0.834-7.088-1.168s-2.077-1.334-1.782-2.502c0.296-1.168,0.529-2.335,3.698-2.335
						c3.17,0,8.116-0.474,9.008-0.167c1.115,0.384,2.379,1.031,2.628,3.837c0.243,2.745-1.079,8.018-1.079,8.018l0.288,0.442
						l1.868-13.78L316.204,221.928z"/>
					<g>
						<path fill="#EB996E" d="M298.401,238.372c0.011,0.034-0.295,0.154-0.858,0.343c-0.561,0.195-1.391,0.422-2.429,0.654
							c-2.072,0.462-5.02,0.843-8.273,0.634c-3.255-0.217-6.129-0.997-8.109-1.768c-0.991-0.385-1.776-0.739-2.298-1.024
							c-0.526-0.277-0.808-0.445-0.792-0.478c0.039-0.082,1.223,0.481,3.215,1.155c1.988,0.674,4.821,1.381,8.019,1.595
							c3.197,0.205,6.1-0.111,8.169-0.476C297.115,238.641,298.376,238.287,298.401,238.372z"/>
					</g>
					<g>
						<path fill="#EB996E" d="M296.393,234.55c0.007,0.034-0.298,0.134-0.86,0.275c-0.562,0.14-1.382,0.315-2.404,0.483
							c-2.041,0.333-4.925,0.622-8.096,0.298c-3.172-0.321-5.946-1.274-7.783-2.254c-0.923-0.484-1.628-0.948-2.091-1.3
							c-0.464-0.351-0.697-0.573-0.678-0.599c0.054-0.075,1.077,0.702,2.932,1.569c1.845,0.878,4.566,1.751,7.674,2.066
							c3.108,0.317,5.952,0.093,7.99-0.145C295.12,234.701,296.377,234.471,296.393,234.55z"/>
					</g>
					<g>
						<path fill="#EB996E" d="M299.696,224.722c0.062-0.017,0.252,0.465,0.209,1.282c-0.031,0.403-0.093,0.901-0.395,1.408
							c-0.138,0.253-0.432,0.489-0.68,0.619c-0.26,0.15-0.543,0.272-0.838,0.371c-1.175,0.375-2.274,0.475-3.052,0.521
							c-0.772,0.043-1.225,0.162-1.255,0.097c-0.034-0.066,0.42-0.323,1.206-0.462c0.771-0.139,1.831-0.298,2.934-0.649
							c0.53-0.194,1.06-0.406,1.282-0.759c0.255-0.375,0.361-0.824,0.431-1.188C299.67,225.217,299.618,224.735,299.696,224.722z"/>
					</g>
					<g>
						<path fill="#EB996E" d="M294.664,240.74c0.044-0.031,0.355,0.658,0.01,1.733c-0.176,0.521-0.517,1.112-1.072,1.603
							c-0.554,0.494-1.313,0.846-2.143,0.988c-0.832,0.142-1.641,0.077-2.341-0.104c-0.699-0.188-1.273-0.471-1.742-0.71
							c-0.928-0.498-1.496-0.782-1.478-0.846c0.022-0.074,0.668,0.101,1.632,0.512c0.951,0.407,2.314,0.914,3.84,0.637
							c0.747-0.128,1.422-0.43,1.921-0.841c0.503-0.411,0.839-0.916,1.038-1.369C294.727,241.416,294.573,240.747,294.664,240.74z"
							/>
					</g>
					<g>
						<path fill="#EB996E" d="M299.071,223.762c0.009-0.012,0.073,0.025,0.194,0.112c0.116,0.089,0.269,0.251,0.419,0.492
							c0.298,0.486,0.521,1.294,0.596,2.309c0.146,2.038-0.196,4.883-0.967,8.089l-0.007-0.148c0.475,1.28,1.124,2.619,1.896,3.948
							c1.085,1.865,2.281,3.548,3.439,5.021c1.147,1.462,2.365,2.714,2.965,4.069c0.624,1.344,0.569,2.622,0.29,3.387
							c-0.136,0.389-0.31,0.66-0.443,0.826c-0.138,0.165-0.224,0.236-0.235,0.226c-0.044-0.029,0.281-0.359,0.484-1.11
							c0.205-0.736,0.198-1.931-0.428-3.169c-0.604-1.259-1.813-2.454-3.008-3.929c-1.19-1.471-2.413-3.164-3.515-5.059
							c-0.785-1.35-1.441-2.718-1.916-4.04l-0.026-0.072l0.02-0.077c0.79-3.15,1.194-5.964,1.136-7.945
							c-0.029-0.99-0.196-1.767-0.43-2.246C299.3,223.967,299.043,223.795,299.071,223.762z"/>
					</g>
				</g>
			</g>
			<g>
				<g>
					<path fill="#FFBE9D" d="M205.49,241.554c0,0-1.547,21.257,8.336,24.82c13.633,4.916,29.176-8.667,29.235-8.886
						s16.539-13.491,16.539-13.491l-5.134-14.128c0,0-2.054,0-5.391,2.377c-1.207,0.859-20.31,10.932-20.31,10.932
						S220.431,243.108,205.49,241.554z"/>
					<g>
						<path fill="#EB996E" d="M229.46,242.862c0.067,0.16-3.532,1.62-7.878,3.567c-2.17,0.984-4.084,1.972-5.453,2.723
							c-1.367,0.752-2.2,1.248-2.244,1.182c-0.036-0.054,0.727-0.659,2.058-1.499c1.33-0.838,3.239-1.889,5.423-2.879
							c2.182-0.995,4.205-1.775,5.674-2.318C228.511,243.097,229.433,242.795,229.46,242.862z"/>
					</g>
				</g>
				<path fill="#FFBE9D" d="M272.742,222.171c0,0-2.579-3.656-3.604-3.644c-1.024,0.012-7.166,1.018-7.166,1.018l-8.689,9.426
					c0,0-0.598,3.074,1.28,4.184c0,0-0.632,4.831,1.69,6.215c0,0,1.725,4.543,3.347,4.628c1.622,0.085,2.063,0,2.063,0
					s-0.355,2.732,2.12,2.903c1.805,0.124,5.448-0.425,7.294-0.733c0.719-0.12,1.355-0.521,1.777-1.115l2.127-2.994
					c0.678-0.954,0.674-2.234-0.009-3.184l0,0c0,0,1.02-1.219,1.275-2.231c0.257-1.013,0-2.854,0-2.854s3.672-3.106,3.757-3.92
					c0.086-0.813-0.085-1.589-1.707-1.5c0,0-0.342-2.514-2.391-2.45c-2.05,0.064-11.755,0-11.755,0l1.844-1.8
					c0,0,4.832,1.839,5.341,0.617L272.742,222.171z"/>
				<g>
					<path fill="#EB996E" d="M258.804,233.047c0.001-0.038,0.56-0.057,1.574-0.11c1.015-0.053,2.486-0.143,4.305-0.358
						c1.818-0.212,3.983-0.564,6.365-1.13c1.189-0.286,2.434-0.626,3.712-1.03c1.236-0.344,2.313-1.303,3.358-2.236l0.064-0.057
						l0.07-0.011c0.422-0.065,0.914-0.131,1.414,0.136c0.246,0.138,0.426,0.398,0.501,0.649c0.079,0.252,0.092,0.5,0.095,0.727
						c-0.005,0.12,0.017,0.157-0.012,0.331c-0.028,0.188-0.096,0.254-0.147,0.37c-0.117,0.183-0.242,0.345-0.371,0.5
						c-0.258,0.308-0.53,0.587-0.802,0.862c-0.548,0.547-1.104,1.059-1.665,1.552l-0.007,0.006l-0.009,0.007
						c-2.102,1.566-4.04,3.129-5.986,4.257c-1.939,1.155-3.902,1.736-5.547,1.975c-1.655,0.237-3.009,0.106-3.899-0.096
						c-0.447-0.096-0.786-0.202-1.009-0.289c-0.223-0.085-0.336-0.137-0.331-0.152c0.005-0.115,1.937,0.756,5.188,0.208
						c1.602-0.279,3.496-0.879,5.371-2.031c1.893-1.132,3.799-2.696,5.909-4.284l-0.016,0.012c0.548-0.486,1.101-0.997,1.634-1.532
						c0.265-0.269,0.53-0.543,0.771-0.83c0.119-0.144,0.23-0.291,0.324-0.436c0.029-0.061,0.086-0.157,0.077-0.167
						c0.02-0.018,0.003-0.179,0.007-0.255c0.002-0.426-0.077-0.795-0.341-0.937c-0.269-0.153-0.684-0.141-1.059-0.074l0.134-0.067
						c-0.54,0.502-1.09,0.959-1.671,1.375c-0.566,0.408-1.227,0.795-1.897,0.961c-1.294,0.399-2.552,0.731-3.756,1.005
						c-2.409,0.542-4.598,0.858-6.433,1.027c-1.836,0.17-3.318,0.207-4.338,0.201c-0.51,0-0.904-0.017-1.171-0.032
						C258.944,233.08,258.804,233.063,258.804,233.047z"/>
				</g>
				<g>
					<path fill="#EB996E" d="M276.249,233.789c0.05-0.004,0.159,0.549,0.21,1.521c0.012,0.243,0.018,0.513,0.01,0.808
						c-0.004,0.147-0.011,0.301-0.026,0.461c-0.007,0.166-0.083,0.378-0.15,0.519c-0.141,0.318-0.313,0.63-0.501,0.956
						c-0.098,0.162-0.196,0.327-0.296,0.494l-0.16,0.253c-0.036,0.054-0.034,0.061-0.108,0.157c-0.021,0.023-0.046,0.043-0.071,0.06
						c-0.044-0.003,0.015,0.072-0.239-0.02c-0.142-0.114-0.095-0.259-0.086-0.278c0.015-0.039,0.024-0.052,0.024-0.052l0.011-0.018
						l0.042-0.069l0.405,0.242c-0.586,1.069-1.441,2.179-2.548,3.125c-2.033,1.769-4.482,2.459-6.2,2.563
						c-0.867,0.063-1.569,0.008-2.047-0.058c-0.478-0.081-0.735-0.143-0.73-0.178c0.01-0.1,1.067,0.082,2.741-0.13
						c1.655-0.195,3.961-0.908,5.898-2.594c1.055-0.903,1.885-1.95,2.475-2.962l0.405,0.242
						C276.507,236.208,276.095,233.752,276.249,233.789z"/>
				</g>
				<g>
					<path fill="#EB996E" d="M266.228,224.204c-0.038,0.112-1.02-0.252-1.483-1.414c-0.214-0.568-0.178-1.129-0.082-1.493
						c0.098-0.368,0.234-0.563,0.299-0.544c0.161,0.036-0.077,0.924,0.271,1.855C265.583,223.538,266.329,224.074,266.228,224.204z"
						/>
				</g>
				<g>
					<path fill="#EB996E" d="M261.877,244.092c0.007,0.028-0.256,0.142-0.767,0.182c-0.505,0.04-1.275-0.007-2.123-0.4
						c-0.843-0.381-1.73-1.179-2.208-2.333c-0.247-0.557-0.352-1.265-0.362-1.875c-0.028-0.306-0.096-0.498-0.323-0.674
						c-0.226-0.172-0.564-0.403-0.792-0.686c-0.641-0.753-0.899-1.692-0.966-2.545c-0.068-0.86,0.023-1.653,0.096-2.365l0.111,0.215
						c-1.378-0.871-1.721-2.314-1.681-3.172c0.041-0.903,0.368-1.338,0.39-1.318c0.063,0.021-0.166,0.481-0.127,1.315
						c0.032,0.797,0.435,2.079,1.644,2.786l0.122,0.071l-0.011,0.144c-0.051,0.713-0.12,1.486-0.044,2.28
						c0.071,0.785,0.319,1.616,0.86,2.25c0.205,0.248,0.431,0.397,0.728,0.627c0.321,0.223,0.501,0.698,0.501,1.029
						c0.012,0.67,0.087,1.206,0.3,1.74c0.406,1.047,1.174,1.792,1.928,2.183C260.709,244.335,261.889,243.984,261.877,244.092z"/>
				</g>
			</g>
		</g>
		<g opacity="0.3">
			<path d="M235.322,215.51c-1.17,10.608-2.821,18.707-5.313,26.033c3.463-2.944,5.842-7.115,6.503-11.612
				C237.174,225.433,236.124,219.985,235.322,215.51z"/>
		</g>
		<g opacity="0.3">
			<path d="M303.438,209.684c-0.307-3.766-1.403-7.429-2.795-10.942c1.565,7.479,1.744,15.245,0.524,22.788l0.367-0.813
				C303.229,217.338,303.746,213.45,303.438,209.684z"/>
		</g>
	</g>
</g>
</svg>
