<?xml version="1.0"?>
<svg xmlns="http://www.w3.org/2000/svg" viewBox="0 0 64 64" width="512" height="512"><g id="Filled_outline" data-name="Filled outline"><rect x="3" y="3" width="58" height="58" style="fill:#7fcac9"/><rect x="3" y="3" width="16" height="8" style="fill:#ffd782"/><rect x="19" y="3" width="42" height="8" style="fill:#3b73a5"/><rect x="6" y="6" width="2" height="2" style="fill:#3b73a5"/><rect x="10" y="6" width="2" height="2" style="fill:#3b73a5"/><rect x="14" y="6" width="2" height="2" style="fill:#3b73a5"/><path d="M18,26l3-3-4-4-3,3a18.58,18.58,0,0,0-7-3V15H3V57H7V53a18.58,18.58,0,0,0,7-3l3,3,4-4-3-3a18.58,18.58,0,0,0,3-7h4V33H21A18.58,18.58,0,0,0,18,26Z" style="fill:#3b73a5"/><path d="M4,24c-.338,0-.669.023-1,.05v23.9c.331.027.662.05,1,.05A12,12,0,0,0,4,24Z" style="fill:#d1f5c9"/><path d="M4,28a8.047,8.047,0,0,0-1,.069V43.931A8.047,8.047,0,0,0,4,44,8,8,0,0,0,4,28Z" style="fill:#3b73a5"/><rect x="29" y="33" width="28" height="6" style="fill:#d1f5c9"/><rect x="29" y="23" width="28" height="6" style="fill:#d1f5c9"/><rect x="29" y="43" width="28" height="6" style="fill:#d1f5c9"/><rect x="38" y="18" width="10" height="2" style="fill:#ffd782"/><rect x="38" y="52" width="2" height="2" style="fill:#ffd782"/><rect x="42" y="52" width="2" height="2" style="fill:#ffd782"/><rect x="46" y="52" width="2" height="2" style="fill:#ffd782"/><rect x="6" y="6" width="2" height="2"/><rect x="10" y="6" width="2" height="2"/><rect x="14" y="6" width="2" height="2"/><path d="M61,2H3A1,1,0,0,0,2,3V61a1,1,0,0,0,1,1H61a1,1,0,0,0,1-1V3A1,1,0,0,0,61,2Zm-1,8H20V4H60ZM4,4H18v6H4ZM6.824,19.984a17.665,17.665,0,0,1,6.6,2.836,1,1,0,0,0,1.279-.113L17,20.414,19.586,23l-2.293,2.293a1,1,0,0,0-.113,1.279,17.665,17.665,0,0,1,2.836,6.6A1,1,0,0,0,21,34h3v4H21a1,1,0,0,0-.984.824,17.665,17.665,0,0,1-2.836,6.6,1,1,0,0,0,.113,1.279L19.586,49,17,51.586l-2.293-2.293a1,1,0,0,0-1.279-.113,17.665,17.665,0,0,1-6.6,2.836A1,1,0,0,0,6,53v3H4V49A13,13,0,0,0,4,23V16H6v3A1,1,0,0,0,6.824,19.984ZM4,45A9,9,0,0,0,4,27V25A11,11,0,0,1,4,47ZM4,29A7,7,0,0,1,4,43ZM4,60V58H7a1,1,0,0,0,1-1V53.812a19.737,19.737,0,0,0,5.872-2.526l2.421,2.421a1,1,0,0,0,1.414,0l4-4a1,1,0,0,0,0-1.414l-2.421-2.421A19.737,19.737,0,0,0,21.812,40H25a1,1,0,0,0,1-1V33a1,1,0,0,0-1-1H21.812a19.737,19.737,0,0,0-2.526-5.872l2.421-2.421a1,1,0,0,0,0-1.414l-4-4a1,1,0,0,0-1.414,0l-2.421,2.421A19.737,19.737,0,0,0,8,18.188V15a1,1,0,0,0-1-1H4V12H60V60Z"/><path d="M28,40H58V32H28Zm2-6H56v4H30Z"/><path d="M28,30H58V22H28Zm2-6H56v4H30Z"/><path d="M28,50H58V42H28Zm2-6H56v4H30Z"/><rect x="38" y="18" width="10" height="2"/><rect x="38" y="52" width="2" height="2"/><rect x="42" y="52" width="2" height="2"/><rect x="46" y="52" width="2" height="2"/></g></svg>
